<svg xmlns="http://www.w3.org/2000/svg" xmlns:xlink="http://www.w3.org/1999/xlink" viewBox="0 0 77.82 77.83"><defs><style>.cls-1{fill:#fff;}.cls-2{fill:url(#linear-gradient);}.cls-3{fill:url(#linear-gradient-2);}.cls-4{fill:url(#linear-gradient-3);}.cls-5{fill:url(#linear-gradient-4);}.cls-6{fill:url(#linear-gradient-5);}</style><linearGradient id="linear-gradient" x1="21.04" y1="25.94" x2="53.05" y2="57.96" gradientUnits="userSpaceOnUse"><stop offset="0" stop-color="#b2d041"/><stop offset="1" stop-color="#38833f"/></linearGradient><linearGradient id="linear-gradient-2" x1="13.76" y1="47.03" x2="23.82" y2="57.09" gradientUnits="userSpaceOnUse"><stop offset="0" stop-color="#b2d041"/><stop offset="0.72" stop-color="#38833f"/></linearGradient><linearGradient id="linear-gradient-3" x1="62.71" y1="33.6" x2="69.39" y2="40.28" gradientUnits="userSpaceOnUse"><stop offset="0" stop-color="#b2d041"/><stop offset="0.76" stop-color="#38833f"/></linearGradient><linearGradient id="linear-gradient-4" x1="23.07" y1="33.04" x2="67.94" y2="77.91" xlink:href="#linear-gradient"/><linearGradient id="linear-gradient-5" x1="14.96" y1="7.83" x2="63.23" y2="56.1" xlink:href="#linear-gradient"/></defs><g id="Layer_2" data-name="Layer 2"><g id="Layer_1-2" data-name="Layer 1"><circle class="cls-1" cx="38.91" cy="38.91" r="38.91"/><path class="cls-2" d="M71.05,36a1.8,1.8,0,0,0-1.63-.08,2.78,2.78,0,0,0-1.4.78,11.63,11.63,0,0,0-1.49,1.67,12.75,12.75,0,0,0-1.19,1.91,3.66,3.66,0,0,0-.48,1.49c0,.1.14.18.41.24a3.82,3.82,0,0,0,1,.11,7.81,7.81,0,0,0,1.64-.21,6.06,6.06,0,0,0,1.8-.72,4.48,4.48,0,0,0,1.46-1.39,4,4,0,0,0,.61-2.31A1.58,1.58,0,0,0,71.05,36Zm0,0a1.8,1.8,0,0,0-1.63-.08,2.78,2.78,0,0,0-1.4.78,11.63,11.63,0,0,0-1.49,1.67,12.75,12.75,0,0,0-1.19,1.91,3.66,3.66,0,0,0-.48,1.49c0,.1.14.18.41.24a3.82,3.82,0,0,0,1,.11,7.81,7.81,0,0,0,1.64-.21,6.06,6.06,0,0,0,1.8-.72,4.48,4.48,0,0,0,1.46-1.39,4,4,0,0,0,.61-2.31A1.58,1.58,0,0,0,71.05,36Zm0,0a1.8,1.8,0,0,0-1.63-.08,2.78,2.78,0,0,0-1.4.78,11.63,11.63,0,0,0-1.49,1.67,12.75,12.75,0,0,0-1.19,1.91,3.66,3.66,0,0,0-.48,1.49c0,.1.14.18.41.24a3.82,3.82,0,0,0,1,.11,7.81,7.81,0,0,0,1.64-.21,6.06,6.06,0,0,0,1.8-.72,4.48,4.48,0,0,0,1.46-1.39,4,4,0,0,0,.61-2.31A1.58,1.58,0,0,0,71.05,36Zm0,0a1.8,1.8,0,0,0-1.63-.08,2.78,2.78,0,0,0-1.4.78,11.63,11.63,0,0,0-1.49,1.67,12.75,12.75,0,0,0-1.19,1.91,3.66,3.66,0,0,0-.48,1.49c0,.1.14.18.41.24a3.82,3.82,0,0,0,1,.11,7.81,7.81,0,0,0,1.64-.21,6.06,6.06,0,0,0,1.8-.72,4.48,4.48,0,0,0,1.46-1.39,4,4,0,0,0,.61-2.31A1.58,1.58,0,0,0,71.05,36ZM10.15,39.6a12.82,12.82,0,0,0-4,1.47,4.36,4.36,0,0,0-1.9,2.1,8,8,0,0,0-.34,4.22,7,7,0,0,0,.43,1.54,3.75,3.75,0,0,0,.86,1.21,1.86,1.86,0,0,0,1.36.52,2.5,2.5,0,0,0,1.77-.95A13.85,13.85,0,0,0,10,47.49a20.06,20.06,0,0,0,1.26-2.41c.34-.78.56-1.3.65-1.57.45-1.13.81-2.06,1.09-2.79a2.35,2.35,0,0,1,.82-1.3c.4-.08,1-.23,1.89-.47A13.63,13.63,0,0,1,17,38.62,54.87,54.87,0,0,0,10.15,39.6ZM71.05,36a1.8,1.8,0,0,0-1.63-.08,2.78,2.78,0,0,0-1.4.78,11.63,11.63,0,0,0-1.49,1.67,12.75,12.75,0,0,0-1.19,1.91,3.66,3.66,0,0,0-.48,1.49c0,.1.14.18.41.24a3.82,3.82,0,0,0,1,.11,7.81,7.81,0,0,0,1.64-.21,6.06,6.06,0,0,0,1.8-.72,4.48,4.48,0,0,0,1.46-1.39,4,4,0,0,0,.61-2.31A1.58,1.58,0,0,0,71.05,36Zm0,0a1.8,1.8,0,0,0-1.63-.08,2.78,2.78,0,0,0-1.4.78,11.63,11.63,0,0,0-1.49,1.67,12.75,12.75,0,0,0-1.19,1.91,3.66,3.66,0,0,0-.48,1.49c0,.1.14.18.41.24a3.82,3.82,0,0,0,1,.11,7.81,7.81,0,0,0,1.64-.21,6.06,6.06,0,0,0,1.8-.72,4.48,4.48,0,0,0,1.46-1.39,4,4,0,0,0,.61-2.31A1.58,1.58,0,0,0,71.05,36ZM10.15,39.6a12.82,12.82,0,0,0-4,1.47,4.36,4.36,0,0,0-1.9,2.1,8,8,0,0,0-.34,4.22,7,7,0,0,0,.43,1.54,3.75,3.75,0,0,0,.86,1.21,1.86,1.86,0,0,0,1.36.52,2.5,2.5,0,0,0,1.77-.95A13.85,13.85,0,0,0,10,47.49a20.06,20.06,0,0,0,1.26-2.41c.34-.78.56-1.3.65-1.57.45-1.13.81-2.06,1.09-2.79a2.35,2.35,0,0,1,.82-1.3c.4-.08,1-.23,1.89-.47A13.63,13.63,0,0,1,17,38.62,54.87,54.87,0,0,0,10.15,39.6Zm0,0a12.82,12.82,0,0,0-4,1.47,4.36,4.36,0,0,0-1.9,2.1,8,8,0,0,0-.34,4.22,7,7,0,0,0,.43,1.54,3.75,3.75,0,0,0,.86,1.21,1.86,1.86,0,0,0,1.36.52,2.5,2.5,0,0,0,1.77-.95A13.85,13.85,0,0,0,10,47.49a20.06,20.06,0,0,0,1.26-2.41c.34-.78.56-1.3.65-1.57.45-1.13.81-2.06,1.09-2.79a2.35,2.35,0,0,1,.82-1.3c.4-.08,1-.23,1.89-.47A13.63,13.63,0,0,1,17,38.62,54.87,54.87,0,0,0,10.15,39.6ZM71.05,36a1.8,1.8,0,0,0-1.63-.08,2.78,2.78,0,0,0-1.4.78,11.63,11.63,0,0,0-1.49,1.67,12.75,12.75,0,0,0-1.19,1.91,3.66,3.66,0,0,0-.48,1.49c0,.1.14.18.41.24a3.82,3.82,0,0,0,1,.11,7.81,7.81,0,0,0,1.64-.21,6.06,6.06,0,0,0,1.8-.72,4.48,4.48,0,0,0,1.46-1.39,4,4,0,0,0,.61-2.31A1.58,1.58,0,0,0,71.05,36Zm0,0a1.8,1.8,0,0,0-1.63-.08,2.78,2.78,0,0,0-1.4.78,11.63,11.63,0,0,0-1.49,1.67,12.75,12.75,0,0,0-1.19,1.91,3.66,3.66,0,0,0-.48,1.49c0,.1.14.18.41.24a3.82,3.82,0,0,0,1,.11,7.81,7.81,0,0,0,1.64-.21,6.06,6.06,0,0,0,1.8-.72,4.48,4.48,0,0,0,1.46-1.39,4,4,0,0,0,.61-2.31A1.58,1.58,0,0,0,71.05,36ZM10.15,39.6a12.82,12.82,0,0,0-4,1.47,4.36,4.36,0,0,0-1.9,2.1,8,8,0,0,0-.34,4.22,7,7,0,0,0,.43,1.54,3.75,3.75,0,0,0,.86,1.21,1.86,1.86,0,0,0,1.36.52,2.5,2.5,0,0,0,1.77-.95A13.85,13.85,0,0,0,10,47.49a20.06,20.06,0,0,0,1.26-2.41c.34-.78.56-1.3.65-1.57.45-1.13.81-2.06,1.09-2.79a2.35,2.35,0,0,1,.82-1.3c.4-.08,1-.23,1.89-.47A13.63,13.63,0,0,1,17,38.62,54.87,54.87,0,0,0,10.15,39.6Zm0,0a12.82,12.82,0,0,0-4,1.47,4.36,4.36,0,0,0-1.9,2.1,8,8,0,0,0-.34,4.22,7,7,0,0,0,.43,1.54,3.75,3.75,0,0,0,.86,1.21,1.86,1.86,0,0,0,1.36.52,2.5,2.5,0,0,0,1.77-.95A13.85,13.85,0,0,0,10,47.49a20.06,20.06,0,0,0,1.26-2.41c.34-.78.56-1.3.65-1.57.45-1.13.81-2.06,1.09-2.79a2.35,2.35,0,0,1,.82-1.3c.4-.08,1-.23,1.89-.47A13.63,13.63,0,0,1,17,38.62,54.87,54.87,0,0,0,10.15,39.6ZM71.05,36a1.8,1.8,0,0,0-1.63-.08,2.78,2.78,0,0,0-1.4.78,11.63,11.63,0,0,0-1.49,1.67,12.75,12.75,0,0,0-1.19,1.91,3.66,3.66,0,0,0-.48,1.49c0,.1.14.18.41.24a3.82,3.82,0,0,0,1,.11,7.81,7.81,0,0,0,1.64-.21,6.06,6.06,0,0,0,1.8-.72,4.48,4.48,0,0,0,1.46-1.39,4,4,0,0,0,.61-2.31A1.58,1.58,0,0,0,71.05,36ZM10.15,39.6a12.82,12.82,0,0,0-4,1.47,4.36,4.36,0,0,0-1.9,2.1,8,8,0,0,0-.34,4.22,7,7,0,0,0,.43,1.54,3.75,3.75,0,0,0,.86,1.21,1.86,1.86,0,0,0,1.36.52,2.5,2.5,0,0,0,1.77-.95A13.85,13.85,0,0,0,10,47.49a20.06,20.06,0,0,0,1.26-2.41c.34-.78.56-1.3.65-1.57.45-1.13.81-2.06,1.09-2.79a2.35,2.35,0,0,1,.82-1.3c.4-.08,1-.23,1.89-.47A13.63,13.63,0,0,1,17,38.62,54.87,54.87,0,0,0,10.15,39.6ZM71.05,36a1.8,1.8,0,0,0-1.63-.08,2.78,2.78,0,0,0-1.4.78,11.63,11.63,0,0,0-1.49,1.67,12.75,12.75,0,0,0-1.19,1.91,3.66,3.66,0,0,0-.48,1.49c0,.1.14.18.41.24a3.82,3.82,0,0,0,1,.11,7.81,7.81,0,0,0,1.64-.21,6.06,6.06,0,0,0,1.8-.72,4.48,4.48,0,0,0,1.46-1.39,4,4,0,0,0,.61-2.31A1.58,1.58,0,0,0,71.05,36Zm0,0a1.8,1.8,0,0,0-1.63-.08,2.78,2.78,0,0,0-1.4.78,11.63,11.63,0,0,0-1.49,1.67,12.75,12.75,0,0,0-1.19,1.91,3.66,3.66,0,0,0-.48,1.49c0,.1.14.18.41.24a3.82,3.82,0,0,0,1,.11,7.81,7.81,0,0,0,1.64-.21,6.06,6.06,0,0,0,1.8-.72,4.48,4.48,0,0,0,1.46-1.39,4,4,0,0,0,.61-2.31A1.58,1.58,0,0,0,71.05,36ZM10.15,39.6a12.82,12.82,0,0,0-4,1.47,4.36,4.36,0,0,0-1.9,2.1,8,8,0,0,0-.34,4.22,7,7,0,0,0,.43,1.54,3.75,3.75,0,0,0,.86,1.21,1.86,1.86,0,0,0,1.36.52,2.5,2.5,0,0,0,1.77-.95A13.85,13.85,0,0,0,10,47.49a20.06,20.06,0,0,0,1.26-2.41c.34-.78.56-1.3.65-1.57.45-1.13.81-2.06,1.09-2.79a2.35,2.35,0,0,1,.82-1.3c.4-.08,1-.23,1.89-.47A13.63,13.63,0,0,1,17,38.62,54.87,54.87,0,0,0,10.15,39.6Zm0,0a12.82,12.82,0,0,0-4,1.47,4.36,4.36,0,0,0-1.9,2.1,8,8,0,0,0-.34,4.22,7,7,0,0,0,.43,1.54,3.75,3.75,0,0,0,.86,1.21,1.86,1.86,0,0,0,1.36.52,2.5,2.5,0,0,0,1.77-.95A13.85,13.85,0,0,0,10,47.49a20.06,20.06,0,0,0,1.26-2.41c.34-.78.56-1.3.65-1.57.45-1.13.81-2.06,1.09-2.79a2.35,2.35,0,0,1,.82-1.3c.4-.08,1-.23,1.89-.47A13.63,13.63,0,0,1,17,38.62,54.87,54.87,0,0,0,10.15,39.6ZM71.05,36a1.8,1.8,0,0,0-1.63-.08,2.78,2.78,0,0,0-1.4.78,11.63,11.63,0,0,0-1.49,1.67,12.75,12.75,0,0,0-1.19,1.91,3.66,3.66,0,0,0-.48,1.49c0,.1.14.18.41.24a3.82,3.82,0,0,0,1,.11,7.81,7.81,0,0,0,1.64-.21,6.06,6.06,0,0,0,1.8-.72,4.48,4.48,0,0,0,1.46-1.39,4,4,0,0,0,.61-2.31A1.58,1.58,0,0,0,71.05,36Zm0,0a1.8,1.8,0,0,0-1.63-.08,2.78,2.78,0,0,0-1.4.78,11.63,11.63,0,0,0-1.49,1.67,12.75,12.75,0,0,0-1.19,1.91,3.66,3.66,0,0,0-.48,1.49c0,.1.14.18.41.24a3.82,3.82,0,0,0,1,.11,7.81,7.81,0,0,0,1.64-.21,6.06,6.06,0,0,0,1.8-.72,4.48,4.48,0,0,0,1.46-1.39,4,4,0,0,0,.61-2.31A1.58,1.58,0,0,0,71.05,36ZM10.15,39.6a12.82,12.82,0,0,0-4,1.47,4.36,4.36,0,0,0-1.9,2.1,8,8,0,0,0-.34,4.22,7,7,0,0,0,.43,1.54,3.75,3.75,0,0,0,.86,1.21,1.86,1.86,0,0,0,1.36.52,2.5,2.5,0,0,0,1.77-.95A13.85,13.85,0,0,0,10,47.49a20.06,20.06,0,0,0,1.26-2.41c.34-.78.56-1.3.65-1.57.45-1.13.81-2.06,1.09-2.79a2.35,2.35,0,0,1,.82-1.3c.4-.08,1-.23,1.89-.47A13.63,13.63,0,0,1,17,38.62,54.87,54.87,0,0,0,10.15,39.6ZM71.05,36a1.8,1.8,0,0,0-1.63-.08,2.78,2.78,0,0,0-1.4.78,11.63,11.63,0,0,0-1.49,1.67,12.75,12.75,0,0,0-1.19,1.91,3.66,3.66,0,0,0-.48,1.49c0,.1.14.18.41.24a3.82,3.82,0,0,0,1,.11,7.81,7.81,0,0,0,1.64-.21,6.06,6.06,0,0,0,1.8-.72,4.48,4.48,0,0,0,1.46-1.39,4,4,0,0,0,.61-2.31A1.58,1.58,0,0,0,71.05,36Zm0,0a1.8,1.8,0,0,0-1.63-.08,2.78,2.78,0,0,0-1.4.78,11.63,11.63,0,0,0-1.49,1.67,12.75,12.75,0,0,0-1.19,1.91,3.66,3.66,0,0,0-.48,1.49c0,.1.14.18.41.24a3.82,3.82,0,0,0,1,.11,7.81,7.81,0,0,0,1.64-.21,6.06,6.06,0,0,0,1.8-.72,4.48,4.48,0,0,0,1.46-1.39,4,4,0,0,0,.61-2.31A1.58,1.58,0,0,0,71.05,36Zm0,0a1.8,1.8,0,0,0-1.63-.08,2.78,2.78,0,0,0-1.4.78,11.63,11.63,0,0,0-1.49,1.67,12.75,12.75,0,0,0-1.19,1.91,3.66,3.66,0,0,0-.48,1.49c0,.1.14.18.41.24a3.82,3.82,0,0,0,1,.11,7.81,7.81,0,0,0,1.64-.21,6.06,6.06,0,0,0,1.8-.72,4.48,4.48,0,0,0,1.46-1.39,4,4,0,0,0,.61-2.31A1.58,1.58,0,0,0,71.05,36Zm0,0a1.8,1.8,0,0,0-1.63-.08,2.78,2.78,0,0,0-1.4.78,11.63,11.63,0,0,0-1.49,1.67,12.75,12.75,0,0,0-1.19,1.91,3.66,3.66,0,0,0-.48,1.49c0,.1.14.18.41.24a3.82,3.82,0,0,0,1,.11,7.81,7.81,0,0,0,1.64-.21,6.06,6.06,0,0,0,1.8-.72,4.48,4.48,0,0,0,1.46-1.39,4,4,0,0,0,.61-2.31A1.58,1.58,0,0,0,71.05,36Zm0,0a1.8,1.8,0,0,0-1.63-.08,2.78,2.78,0,0,0-1.4.78,11.63,11.63,0,0,0-1.49,1.67,12.75,12.75,0,0,0-1.19,1.91,3.66,3.66,0,0,0-.48,1.49c0,.1.14.18.41.24a3.82,3.82,0,0,0,1,.11,7.81,7.81,0,0,0,1.64-.21,6.06,6.06,0,0,0,1.8-.72,4.48,4.48,0,0,0,1.46-1.39,4,4,0,0,0,.61-2.31A1.58,1.58,0,0,0,71.05,36Zm0,0a1.8,1.8,0,0,0-1.63-.08,2.78,2.78,0,0,0-1.4.78,11.63,11.63,0,0,0-1.49,1.67,12.75,12.75,0,0,0-1.19,1.91,3.66,3.66,0,0,0-.48,1.49c0,.1.14.18.41.24a3.82,3.82,0,0,0,1,.11,7.81,7.81,0,0,0,1.64-.21,6.06,6.06,0,0,0,1.8-.72,4.48,4.48,0,0,0,1.46-1.39,4,4,0,0,0,.61-2.31A1.58,1.58,0,0,0,71.05,36Z"/><path class="cls-3" d="M4.33,48.93a7,7,0,0,1-.43-1.54,8,8,0,0,1,.34-4.22,4.36,4.36,0,0,1,1.9-2.1,12.82,12.82,0,0,1,4-1.47,54.87,54.87,0,0,1,6.88-1,13.63,13.63,0,0,0-1.37.33c-.86.24-1.49.39-1.89.47a2.35,2.35,0,0,0-.82,1.3c-.28.73-.64,1.66-1.09,2.79-.09.27-.31.79-.65,1.57A20.06,20.06,0,0,1,10,47.49a13.85,13.85,0,0,1-1.63,2.22,2.5,2.5,0,0,1-1.77.95,1.86,1.86,0,0,1-1.36-.52A3.75,3.75,0,0,1,4.33,48.93Z"/><path class="cls-4" d="M65.27,42c-.27-.06-.41-.14-.41-.24a3.66,3.66,0,0,1,.48-1.49,12.75,12.75,0,0,1,1.19-1.91A11.63,11.63,0,0,1,68,36.67a2.78,2.78,0,0,1,1.4-.78,1.8,1.8,0,0,1,1.63.08,1.58,1.58,0,0,1,.68,1.49,4,4,0,0,1-.61,2.31,4.48,4.48,0,0,1-1.46,1.39,6.06,6.06,0,0,1-1.8.72,7.81,7.81,0,0,1-1.64.21A3.82,3.82,0,0,1,65.27,42Z"/><path class="cls-5" d="M76.19,45.11a15.4,15.4,0,0,0,1.46-2.55A38.91,38.91,0,0,1,1.87,50.82a9.36,9.36,0,0,0,1.31,1.37,5.33,5.33,0,0,0,3.58,1.19,6.93,6.93,0,0,0,4.45-1.63,18.41,18.41,0,0,0,3.58-4,26.64,26.64,0,0,0,2.58-4.9c.51-1.28.92-2.42,1.25-3.42.12-.35.22-.68.32-1,1-.09,2-.16,2.92-.21l2.79-.13c-.41,1.5-.75,2.9-1,4.21-.1.48-.16.94-.23,1.41a18.77,18.77,0,0,0-.16,2.48,21,21,0,0,0,.32,3.53,9.94,9.94,0,0,0,1.15,3.34,8.63,8.63,0,0,0,.9,1.25,7.59,7.59,0,0,0,1.41,1.23,6.77,6.77,0,0,0,3.85,1,7.5,7.5,0,0,0,3-.54,8.58,8.58,0,0,0,2-1.19,6.35,6.35,0,0,0,.53-.48,4.49,4.49,0,0,0,.62-.78,2.21,2.21,0,0,0,.38-.81.55.55,0,0,0-.27-.41.85.85,0,0,0-.48-.2,1.3,1.3,0,0,0-.81.4c-.32.27-.7.55-1.13.86a14,14,0,0,1-1.47.85,1.12,1.12,0,0,1-.22.09,4,4,0,0,1-1.61.32,1.79,1.79,0,0,1-1-.32,1.94,1.94,0,0,1-.57-.51,6,6,0,0,1-1-1.9,12.05,12.05,0,0,1-.48-2.15,13.81,13.81,0,0,1-.14-1.46,16.24,16.24,0,0,1,.09-1.81c0-.27.05-.53.08-.81.12-.93.26-1.87.45-2.82a21.82,21.82,0,0,1,.68-2.76,15.35,15.35,0,0,1,.88-2.28c.72,0,1.32,0,1.77,0l.37,0c-.29.53-.57,1.08-.81,1.63a12.55,12.55,0,0,0-1,4.84,8.24,8.24,0,0,0,.66,3.35,6.6,6.6,0,0,0,.63,1.17A4.34,4.34,0,0,0,36,50.73a6.48,6.48,0,0,0,1-.11,5,5,0,0,0,1.39-.48,8.34,8.34,0,0,0,1.6-1,5.46,5.46,0,0,0,.68-.62,10.94,10.94,0,0,0,.95-1.11l.13-.27a6.31,6.31,0,0,0,.11.81,2.36,2.36,0,0,0,.11.44,4,4,0,0,0,.33.82,3.49,3.49,0,0,0,1,1.17,3.17,3.17,0,0,0,1.91.5,5.64,5.64,0,0,0,3.4-1.15,11.48,11.48,0,0,0,1-.84,4.17,4.17,0,0,0,.08.49,3.53,3.53,0,0,0,.61,1.33,3.43,3.43,0,0,0,1.23,1,4.64,4.64,0,0,0,2,.37,4.78,4.78,0,0,0,1.91-.37,8.5,8.5,0,0,0,1.63-.89,7.2,7.2,0,0,0,1.26-1c.34-.37.61-.67.78-.89A13.22,13.22,0,0,0,60,47.39a7.53,7.53,0,0,0,.34.85,6.36,6.36,0,0,0,1.57,2,4.42,4.42,0,0,0,2.78,1,13.72,13.72,0,0,0,8.37-2.86A14.87,14.87,0,0,0,76.19,45.11Z"/><path class="cls-6" d="M77.82,38.91c0,.45,0,.9,0,1.35l-.2-.08a.47.47,0,0,0-.34.13l-.07.07a7.9,7.9,0,0,1-1,2.11,16.89,16.89,0,0,1-2.25,2.9,15.3,15.3,0,0,1-3.19,2.54A7.32,7.32,0,0,1,66.9,49,2.71,2.71,0,0,1,64.48,48a4.31,4.31,0,0,1-.7-2.41,5,5,0,0,1,.13-1.13,9,9,0,0,1,.34-1.12,8.09,8.09,0,0,0,2.65.41,10,10,0,0,0,3.2-.52,8.6,8.6,0,0,0,2.82-1.5,7.43,7.43,0,0,0,2-2.41,6.42,6.42,0,0,0,.78-3.19,5.17,5.17,0,0,0-1.59-4,5.23,5.23,0,0,0-3.64-1.5,9.06,9.06,0,0,0-3.27.78,11.71,11.71,0,0,0-3.64,2.46,13.76,13.76,0,0,0-2.92,4.21,14.26,14.26,0,0,0-1.2,6.09c0,.19,0,.4,0,.63a15.53,15.53,0,0,1-.7,1.85,7.65,7.65,0,0,1-1.33,2,3.15,3.15,0,0,1-2.42.91c-.49,0-.74-.4-.74-1.22a5.23,5.23,0,0,1,.1-1.06q.11-.57.24-1.11a6.56,6.56,0,0,1,.27-1,2.75,2.75,0,0,1,.21-.55c.25-.87.53-1.76.86-2.67s.65-1.79,1-2.71c.77-1.85,1.51-3.67,2.22-5.44s1.31-3.44,1.84-5a13.6,13.6,0,0,0,.78-4.12,3.56,3.56,0,0,0-.61-2.13,4.4,4.4,0,0,0-1.54-1.34,6.25,6.25,0,0,0-2-.64,13,13,0,0,0-2.08-.17,9.38,9.38,0,0,0-2,.17c-.55.11-.81.24-.81.37a1.1,1.1,0,0,0,.24.35,4.08,4.08,0,0,1,.54.84,9.32,9.32,0,0,1,.58,1.44,6.54,6.54,0,0,1,.27,2,11.12,11.12,0,0,1-.37,2.32c-.25,1-.56,2.25-.92,3.63S52.41,34.43,52,36s-.8,3.09-1.16,4.56-.66,2.86-.91,4.15c-.09.5-.17,1-.23,1.4s-.08.64-.1.92a8.22,8.22,0,0,1-.73.85,3.39,3.39,0,0,1-2.52.88q-.48,0-.48-.54a3.49,3.49,0,0,1,.23-.73c.07-.18.15-.4.25-.64.32-.76.68-1.6,1.06-2.47s.88-2.08,1.46-3.58a1.72,1.72,0,0,0,.21-.68,1.94,1.94,0,0,0-.58-1.3,5.5,5.5,0,0,0-1.37-1,6.5,6.5,0,0,0-1.63-.69,5.38,5.38,0,0,0-1.39-.24c-.28,0-.41,0-.41.15s0,.1.11.19a1,1,0,0,1,.09.48,13.73,13.73,0,0,1-.37,2.76,14.3,14.3,0,0,1-1.22,3.4,10.38,10.38,0,0,1-2.15,2.89A4.39,4.39,0,0,1,37,47.93a2.06,2.06,0,0,1-1.37-.57C35.22,47,35,46.12,35,44.8a7.3,7.3,0,0,1,1.11-4.12,10.41,10.41,0,0,1,5.51-4.14A12,12,0,0,1,43.77,36a12.17,12.17,0,0,1,3.43.33q1,.35,1,.48A4.29,4.29,0,0,0,48.6,35a3.71,3.71,0,0,0-1.43-3,5.77,5.77,0,0,0-3.81-1.19A10.19,10.19,0,0,0,38.53,32a14.9,14.9,0,0,0-4,3.1c-.32.35-.61.71-.89,1.08l-.16-.06a8.28,8.28,0,0,0-1-.1c-.47,0-.88-.05-1.25-.09.54-1.33,1.11-2.64,1.71-3.95s1.11-2.6,1.59-3.85.87-2.43,1.19-3.57a11.6,11.6,0,0,0,.47-3.13c0-1.72-.45-2.92-1.36-3.58a6.68,6.68,0,0,0-3.94-1l-1.06,0c-.38,0-.75.06-1.12.1a6,6,0,0,0-.92.18c-.25.06-.37.14-.37.23s.08.18.24.24a2.27,2.27,0,0,1,.54.37,2.39,2.39,0,0,1,.55.83A4.17,4.17,0,0,1,29,20.52a11.4,11.4,0,0,1-.22,2.17c-.13.77-.34,1.73-.63,2.89S27.48,28.11,27,29.7s-1,3.54-1.71,5.86c-.86-.1-1.73-.16-2.65-.22s-1.81-.1-2.71-.2c.67-2.41,1.35-4.77,2-7.11a25.46,25.46,0,0,0,1-7,10.73,10.73,0,0,0-.13-1.46A4.7,4.7,0,0,0,22.2,18a4.22,4.22,0,0,0-1.4-1.35A4.56,4.56,0,0,0,18.33,16a14.47,14.47,0,0,0-2.93.37,23.07,23.07,0,0,0-3.18.94l-.33.12a11,11,0,0,0-3,1.67,2.75,2.75,0,0,0-1.22,2.14,5.37,5.37,0,0,0,.61,2.66,7.22,7.22,0,0,0,1.35,1.76,6.75,6.75,0,0,0,1.41,1,4.12,4.12,0,0,0,.71.3c.06.07.23,0,.49-.17l.32-.24q.68-.54,1.47-1.26c.52-.47,1-.91,1.5-1.3a2.51,2.51,0,0,1,.91-.57.27.27,0,0,0,.2-.06.23.23,0,0,1,.07-.15c0-.13-.13-.18-.4-.17a4.68,4.68,0,0,0-1,.24c-.39.14-.8.32-1.22.51s-.81.38-1.13.51A5.79,5.79,0,0,1,14.81,23a21.68,21.68,0,0,1,2.5-1.09,28.91,28.91,0,0,1-.76,5.34c-.46,2.17-1,4.48-1.67,6.92-.05.22-.11.43-.17.66a30.38,30.38,0,0,0-5.3.07,15.15,15.15,0,0,0-4.9,1.29,9.09,9.09,0,0,0-3.57,3,7.3,7.3,0,0,0-.89,1.71c0-.64,0-1.27,0-1.92a38.91,38.91,0,1,1,77.82,0Z"/></g></g></svg>