<svg xmlns="http://www.w3.org/2000/svg" viewBox="0 0 102.78 158.15"><defs><style>.cls-1{fill:#589241;}.cls-2{fill:#77c045;}.cls-3{fill:#816558;}.cls-4{fill:#b2d45e;}</style></defs><g id="Layer_2" data-name="Layer 2"><g id="Layer_1-2" data-name="Layer 1"><ellipse class="cls-1" cx="47.46" cy="147.22" rx="23.83" ry="10.93"/><path class="cls-2" d="M56.47,26.05a4.19,4.19,0,0,1,.25-1.79,5.24,5.24,0,0,0,.09-3.32C63.07,2.05,79.33,0,86.06,0a36.44,36.44,0,0,1,15,3.21,5.93,5.93,0,0,0,.83.32c.31.11.54.2.72.28A75.77,75.77,0,0,0,90.17,8.16l-1,.44C79.1,12.77,69,18.17,56.47,26.05Z"/><path class="cls-1" d="M67.8,29.14a26.57,26.57,0,0,1-6.09-.68c-.43-.1-.87-.18-1.31-.26a9.84,9.84,0,0,1-2.5-.67c12.24-7.7,22.17-13,32-17.08L91,10a75.1,75.1,0,0,1,11.82-4.18c-2,6.75-6.62,12.36-14.34,17.55-1.08.72-2.23,1.41-3.34,2.08l-1.42.86-.46.12C78.2,27.77,73,29.14,67.8,29.14Z"/><path class="cls-3" d="M48,32.38l-1.28-10.6c-.4-2.52-.8-5-1.2-7.5.4,0,.79.07,1.18.07a5.87,5.87,0,0,0,2.76-.62,12,12,0,0,1,.28,3.83,15.72,15.72,0,0,0,.23,3.93,16.15,16.15,0,0,0-.71,5.65,13.72,13.72,0,0,1-.75,5.24Z"/><path class="cls-4" d="M58.4,29h-.06a58.43,58.43,0,0,1-8.09,2.24h0a19.14,19.14,0,0,0,.51-5,15.38,15.38,0,0,1,.49-4.68l3.36-.4a5.14,5.14,0,0,1-.27,1.65c-.32,1.21-.76,2.87.58,4.38A6.61,6.61,0,0,0,58.4,29Z"/><path class="cls-4" d="M72.18,65.65A1.37,1.37,0,0,0,71,65.59a2.16,2.16,0,0,0-1.06.59,8.66,8.66,0,0,0-1.12,1.26,9.46,9.46,0,0,0-.9,1.44A2.79,2.79,0,0,0,67.51,70c0,.07.1.13.31.18a3,3,0,0,0,.71.08,5.61,5.61,0,0,0,1.24-.16,4.3,4.3,0,0,0,1.36-.54,3.43,3.43,0,0,0,1.1-1,3,3,0,0,0,.46-1.74A1.2,1.2,0,0,0,72.18,65.65Zm0,0A1.37,1.37,0,0,0,71,65.59a2.16,2.16,0,0,0-1.06.59,8.66,8.66,0,0,0-1.12,1.26,9.46,9.46,0,0,0-.9,1.44A2.79,2.79,0,0,0,67.51,70c0,.07.1.13.31.18a3,3,0,0,0,.71.08,5.61,5.61,0,0,0,1.24-.16,4.3,4.3,0,0,0,1.36-.54,3.43,3.43,0,0,0,1.1-1,3,3,0,0,0,.46-1.74A1.2,1.2,0,0,0,72.18,65.65Zm0,0A1.37,1.37,0,0,0,71,65.59a2.16,2.16,0,0,0-1.06.59,8.66,8.66,0,0,0-1.12,1.26,9.46,9.46,0,0,0-.9,1.44A2.79,2.79,0,0,0,67.51,70c0,.07.1.13.31.18a3,3,0,0,0,.71.08,5.61,5.61,0,0,0,1.24-.16,4.3,4.3,0,0,0,1.36-.54,3.43,3.43,0,0,0,1.1-1,3,3,0,0,0,.46-1.74A1.2,1.2,0,0,0,72.18,65.65Zm0,0A1.37,1.37,0,0,0,71,65.59a2.16,2.16,0,0,0-1.06.59,8.66,8.66,0,0,0-1.12,1.26,9.46,9.46,0,0,0-.9,1.44A2.79,2.79,0,0,0,67.51,70c0,.07.1.13.31.18a3,3,0,0,0,.71.08,5.61,5.61,0,0,0,1.24-.16,4.3,4.3,0,0,0,1.36-.54,3.43,3.43,0,0,0,1.1-1,3,3,0,0,0,.46-1.74A1.2,1.2,0,0,0,72.18,65.65Zm-46,2.74a9.86,9.86,0,0,0-3,1.11,3.32,3.32,0,0,0-1.43,1.59,5.87,5.87,0,0,0-.36,2.15,6.2,6.2,0,0,0,.1,1,5.37,5.37,0,0,0,.33,1.16,2.75,2.75,0,0,0,.65.92,1.41,1.41,0,0,0,1,.39A1.88,1.88,0,0,0,24.84,76a10.46,10.46,0,0,0,1.23-1.67A16.87,16.87,0,0,0,27,72.53c.26-.59.42-1,.49-1.19.34-.85.61-1.55.82-2.1a1.79,1.79,0,0,1,.62-1c.3-.06.78-.18,1.43-.36.34-.1.69-.18,1-.25A42.94,42.94,0,0,0,26.22,68.39Zm46-2.74A1.37,1.37,0,0,0,71,65.59a2.16,2.16,0,0,0-1.06.59,8.66,8.66,0,0,0-1.12,1.26,9.46,9.46,0,0,0-.9,1.44A2.79,2.79,0,0,0,67.51,70c0,.07.1.13.31.18a3,3,0,0,0,.71.08,5.61,5.61,0,0,0,1.24-.16,4.3,4.3,0,0,0,1.36-.54,3.43,3.43,0,0,0,1.1-1,3,3,0,0,0,.46-1.74A1.2,1.2,0,0,0,72.18,65.65Zm0,0A1.37,1.37,0,0,0,71,65.59a2.16,2.16,0,0,0-1.06.59,8.66,8.66,0,0,0-1.12,1.26,9.46,9.46,0,0,0-.9,1.44A2.79,2.79,0,0,0,67.51,70c0,.07.1.13.31.18a3,3,0,0,0,.71.08,5.61,5.61,0,0,0,1.24-.16,4.3,4.3,0,0,0,1.36-.54,3.43,3.43,0,0,0,1.1-1,3,3,0,0,0,.46-1.74A1.2,1.2,0,0,0,72.18,65.65Zm-46,2.74a9.86,9.86,0,0,0-3,1.11,3.32,3.32,0,0,0-1.43,1.59,5.87,5.87,0,0,0-.36,2.15,6.2,6.2,0,0,0,.1,1,5.37,5.37,0,0,0,.33,1.16,2.75,2.75,0,0,0,.65.92,1.41,1.41,0,0,0,1,.39A1.88,1.88,0,0,0,24.84,76a10.46,10.46,0,0,0,1.23-1.67A16.87,16.87,0,0,0,27,72.53c.26-.59.42-1,.49-1.19.34-.85.61-1.55.82-2.1a1.79,1.79,0,0,1,.62-1c.3-.06.78-.18,1.43-.36.34-.1.69-.18,1-.25A42.94,42.94,0,0,0,26.22,68.39Zm0,0a9.86,9.86,0,0,0-3,1.11,3.32,3.32,0,0,0-1.43,1.59,5.87,5.87,0,0,0-.36,2.15,6.2,6.2,0,0,0,.1,1,5.37,5.37,0,0,0,.33,1.16,2.75,2.75,0,0,0,.65.92,1.41,1.41,0,0,0,1,.39A1.88,1.88,0,0,0,24.84,76a10.46,10.46,0,0,0,1.23-1.67A16.87,16.87,0,0,0,27,72.53c.26-.59.42-1,.49-1.19.34-.85.61-1.55.82-2.1a1.79,1.79,0,0,1,.62-1c.3-.06.78-.18,1.43-.36.34-.1.69-.18,1-.25A42.94,42.94,0,0,0,26.22,68.39Zm46-2.74A1.37,1.37,0,0,0,71,65.59a2.16,2.16,0,0,0-1.06.59,8.66,8.66,0,0,0-1.12,1.26,9.46,9.46,0,0,0-.9,1.44A2.79,2.79,0,0,0,67.51,70c0,.07.1.13.31.18a3,3,0,0,0,.71.08,5.61,5.61,0,0,0,1.24-.16,4.3,4.3,0,0,0,1.36-.54,3.43,3.43,0,0,0,1.1-1,3,3,0,0,0,.46-1.74A1.2,1.2,0,0,0,72.18,65.65Zm0,0A1.37,1.37,0,0,0,71,65.59a2.16,2.16,0,0,0-1.06.59,8.66,8.66,0,0,0-1.12,1.26,9.46,9.46,0,0,0-.9,1.44A2.79,2.79,0,0,0,67.51,70c0,.07.1.13.31.18a3,3,0,0,0,.71.08,5.61,5.61,0,0,0,1.24-.16,4.3,4.3,0,0,0,1.36-.54,3.43,3.43,0,0,0,1.1-1,3,3,0,0,0,.46-1.74A1.2,1.2,0,0,0,72.18,65.65Zm-46,2.74a9.86,9.86,0,0,0-3,1.11,3.32,3.32,0,0,0-1.43,1.59,5.87,5.87,0,0,0-.36,2.15,6.2,6.2,0,0,0,.1,1,5.37,5.37,0,0,0,.33,1.16,2.75,2.75,0,0,0,.65.92,1.41,1.41,0,0,0,1,.39A1.88,1.88,0,0,0,24.84,76a10.46,10.46,0,0,0,1.23-1.67A16.87,16.87,0,0,0,27,72.53c.26-.59.42-1,.49-1.19.34-.85.61-1.55.82-2.1a1.79,1.79,0,0,1,.62-1c.3-.06.78-.18,1.43-.36.34-.1.69-.18,1-.25A42.94,42.94,0,0,0,26.22,68.39Zm0,0a9.86,9.86,0,0,0-3,1.11,3.32,3.32,0,0,0-1.43,1.59,5.87,5.87,0,0,0-.36,2.15,6.2,6.2,0,0,0,.1,1,5.37,5.37,0,0,0,.33,1.16,2.75,2.75,0,0,0,.65.92,1.41,1.41,0,0,0,1,.39A1.88,1.88,0,0,0,24.84,76a10.46,10.46,0,0,0,1.23-1.67A16.87,16.87,0,0,0,27,72.53c.26-.59.42-1,.49-1.19.34-.85.61-1.55.82-2.1a1.79,1.79,0,0,1,.62-1c.3-.06.78-.18,1.43-.36.34-.1.69-.18,1-.25A42.94,42.94,0,0,0,26.22,68.39Zm46-2.74A1.37,1.37,0,0,0,71,65.59a2.16,2.16,0,0,0-1.06.59,8.66,8.66,0,0,0-1.12,1.26,9.46,9.46,0,0,0-.9,1.44A2.79,2.79,0,0,0,67.51,70c0,.07.1.13.31.18a3,3,0,0,0,.71.08,5.61,5.61,0,0,0,1.24-.16,4.3,4.3,0,0,0,1.36-.54,3.43,3.43,0,0,0,1.1-1,3,3,0,0,0,.46-1.74A1.2,1.2,0,0,0,72.18,65.65Zm-46,2.74a9.86,9.86,0,0,0-3,1.11,3.32,3.32,0,0,0-1.43,1.59,5.87,5.87,0,0,0-.36,2.15,6.2,6.2,0,0,0,.1,1,5.37,5.37,0,0,0,.33,1.16,2.75,2.75,0,0,0,.65.92,1.41,1.41,0,0,0,1,.39A1.88,1.88,0,0,0,24.84,76a10.46,10.46,0,0,0,1.23-1.67A16.87,16.87,0,0,0,27,72.53c.26-.59.42-1,.49-1.19.34-.85.61-1.55.82-2.1a1.79,1.79,0,0,1,.62-1c.3-.06.78-.18,1.43-.36.34-.1.69-.18,1-.25A42.94,42.94,0,0,0,26.22,68.39Zm46-2.74A1.37,1.37,0,0,0,71,65.59a2.16,2.16,0,0,0-1.06.59,8.66,8.66,0,0,0-1.12,1.26,9.46,9.46,0,0,0-.9,1.44A2.79,2.79,0,0,0,67.51,70c0,.07.1.13.31.18a3,3,0,0,0,.71.08,5.61,5.61,0,0,0,1.24-.16,4.3,4.3,0,0,0,1.36-.54,3.43,3.43,0,0,0,1.1-1,3,3,0,0,0,.46-1.74A1.2,1.2,0,0,0,72.18,65.65Zm0,0A1.37,1.37,0,0,0,71,65.59a2.16,2.16,0,0,0-1.06.59,8.66,8.66,0,0,0-1.12,1.26,9.46,9.46,0,0,0-.9,1.44A2.79,2.79,0,0,0,67.51,70c0,.07.1.13.31.18a3,3,0,0,0,.71.08,5.61,5.61,0,0,0,1.24-.16,4.3,4.3,0,0,0,1.36-.54,3.43,3.43,0,0,0,1.1-1,3,3,0,0,0,.46-1.74A1.2,1.2,0,0,0,72.18,65.65Zm-46,2.74a9.86,9.86,0,0,0-3,1.11,3.32,3.32,0,0,0-1.43,1.59,5.87,5.87,0,0,0-.36,2.15,6.2,6.2,0,0,0,.1,1,5.37,5.37,0,0,0,.33,1.16,2.75,2.75,0,0,0,.65.92,1.41,1.41,0,0,0,1,.39A1.88,1.88,0,0,0,24.84,76a10.46,10.46,0,0,0,1.23-1.67A16.87,16.87,0,0,0,27,72.53c.26-.59.42-1,.49-1.19.34-.85.61-1.55.82-2.1a1.79,1.79,0,0,1,.62-1c.3-.06.78-.18,1.43-.36.34-.1.69-.18,1-.25A42.94,42.94,0,0,0,26.22,68.39Zm0,0a9.86,9.86,0,0,0-3,1.11,3.32,3.32,0,0,0-1.43,1.59,5.87,5.87,0,0,0-.36,2.15,6.2,6.2,0,0,0,.1,1,5.37,5.37,0,0,0,.33,1.16,2.75,2.75,0,0,0,.65.92,1.41,1.41,0,0,0,1,.39A1.88,1.88,0,0,0,24.84,76a10.46,10.46,0,0,0,1.23-1.67A16.87,16.87,0,0,0,27,72.53c.26-.59.42-1,.49-1.19.34-.85.61-1.55.82-2.1a1.79,1.79,0,0,1,.62-1c.3-.06.78-.18,1.43-.36.34-.1.69-.18,1-.25A42.94,42.94,0,0,0,26.22,68.39Zm46-2.74A1.37,1.37,0,0,0,71,65.59a2.16,2.16,0,0,0-1.06.59,8.66,8.66,0,0,0-1.12,1.26,9.46,9.46,0,0,0-.9,1.44A2.79,2.79,0,0,0,67.51,70c0,.07.1.13.31.18a3,3,0,0,0,.71.08,5.61,5.61,0,0,0,1.24-.16,4.3,4.3,0,0,0,1.36-.54,3.43,3.43,0,0,0,1.1-1,3,3,0,0,0,.46-1.74A1.2,1.2,0,0,0,72.18,65.65Zm0,0A1.37,1.37,0,0,0,71,65.59a2.16,2.16,0,0,0-1.06.59,8.66,8.66,0,0,0-1.12,1.26,9.46,9.46,0,0,0-.9,1.44A2.79,2.79,0,0,0,67.51,70c0,.07.1.13.31.18a3,3,0,0,0,.71.08,5.61,5.61,0,0,0,1.24-.16,4.3,4.3,0,0,0,1.36-.54,3.43,3.43,0,0,0,1.1-1,3,3,0,0,0,.46-1.74A1.2,1.2,0,0,0,72.18,65.65Zm-46,2.74a9.86,9.86,0,0,0-3,1.11,3.32,3.32,0,0,0-1.43,1.59,5.87,5.87,0,0,0-.36,2.15,6.2,6.2,0,0,0,.1,1,5.37,5.37,0,0,0,.33,1.16,2.75,2.75,0,0,0,.65.92,1.41,1.41,0,0,0,1,.39A1.88,1.88,0,0,0,24.84,76a10.46,10.46,0,0,0,1.23-1.67A16.87,16.87,0,0,0,27,72.53c.26-.59.42-1,.49-1.19.34-.85.61-1.55.82-2.1a1.79,1.79,0,0,1,.62-1c.3-.06.78-.18,1.43-.36.34-.1.69-.18,1-.25A42.94,42.94,0,0,0,26.22,68.39Zm46-2.74A1.37,1.37,0,0,0,71,65.59a2.16,2.16,0,0,0-1.06.59,8.66,8.66,0,0,0-1.12,1.26,9.46,9.46,0,0,0-.9,1.44A2.79,2.79,0,0,0,67.51,70c0,.07.1.13.31.18a3,3,0,0,0,.71.08,5.61,5.61,0,0,0,1.24-.16,4.3,4.3,0,0,0,1.36-.54,3.43,3.43,0,0,0,1.1-1,3,3,0,0,0,.46-1.74A1.2,1.2,0,0,0,72.18,65.65Zm0,0A1.37,1.37,0,0,0,71,65.59a2.16,2.16,0,0,0-1.06.59,8.66,8.66,0,0,0-1.12,1.26,9.46,9.46,0,0,0-.9,1.44A2.79,2.79,0,0,0,67.51,70c0,.07.1.13.31.18a3,3,0,0,0,.71.08,5.61,5.61,0,0,0,1.24-.16,4.3,4.3,0,0,0,1.36-.54,3.43,3.43,0,0,0,1.1-1,3,3,0,0,0,.46-1.74A1.2,1.2,0,0,0,72.18,65.65Zm0,0A1.37,1.37,0,0,0,71,65.59a2.16,2.16,0,0,0-1.06.59,8.66,8.66,0,0,0-1.12,1.26,9.46,9.46,0,0,0-.9,1.44A2.79,2.79,0,0,0,67.51,70c0,.07.1.13.31.18a3,3,0,0,0,.71.08,5.61,5.61,0,0,0,1.24-.16,4.3,4.3,0,0,0,1.36-.54,3.43,3.43,0,0,0,1.1-1,3,3,0,0,0,.46-1.74A1.2,1.2,0,0,0,72.18,65.65Zm0,0A1.37,1.37,0,0,0,71,65.59a2.16,2.16,0,0,0-1.06.59,8.66,8.66,0,0,0-1.12,1.26,9.46,9.46,0,0,0-.9,1.44A2.79,2.79,0,0,0,67.51,70c0,.07.1.13.31.18a3,3,0,0,0,.71.08,5.61,5.61,0,0,0,1.24-.16,4.3,4.3,0,0,0,1.36-.54,3.43,3.43,0,0,0,1.1-1,3,3,0,0,0,.46-1.74A1.2,1.2,0,0,0,72.18,65.65Zm0,0A1.37,1.37,0,0,0,71,65.59a2.16,2.16,0,0,0-1.06.59,8.66,8.66,0,0,0-1.12,1.26,9.46,9.46,0,0,0-.9,1.44A2.79,2.79,0,0,0,67.51,70c0,.07.1.13.31.18a3,3,0,0,0,.71.08,5.61,5.61,0,0,0,1.24-.16,4.3,4.3,0,0,0,1.36-.54,3.43,3.43,0,0,0,1.1-1,3,3,0,0,0,.46-1.74A1.2,1.2,0,0,0,72.18,65.65Zm0,0A1.37,1.37,0,0,0,71,65.59a2.16,2.16,0,0,0-1.06.59,8.66,8.66,0,0,0-1.12,1.26,9.46,9.46,0,0,0-.9,1.44A2.79,2.79,0,0,0,67.51,70c0,.07.1.13.31.18a3,3,0,0,0,.71.08,5.61,5.61,0,0,0,1.24-.16,4.3,4.3,0,0,0,1.36-.54,3.43,3.43,0,0,0,1.1-1,3,3,0,0,0,.46-1.74A1.2,1.2,0,0,0,72.18,65.65Z"/><path class="cls-4" d="M93.79,45v0a37.81,37.81,0,0,0-10.4-17.64h0c-5.16,1.36-10.49,2.77-16,2.77a28.54,28.54,0,0,1-6.25-.66l-.43.62a14.61,14.61,0,0,1-8.33,5.56,19.2,19.2,0,0,1-5,.64,16.82,16.82,0,0,1-12.16-4.78l-1.4-1.46,2-.22a8.26,8.26,0,0,1,1-.06,16.9,16.9,0,0,1,4.82.9,15.14,15.14,0,0,0,3.83.77l-1.16-9.66-1.13-.16A22.73,22.73,0,0,1,39,20.79,28.25,28.25,0,0,0,30,19.26C18.63,19.26,9.59,26.72,4.81,35a30.72,30.72,0,0,0-1.63,3.17A40.78,40.78,0,0,0,0,54.7c0,.33,0,.66,0,1s0,.85,0,1.28c.05,1,.13,1.92.24,2.89a60.32,60.32,0,0,0,11,28.5l0,0L45.66,146a2.44,2.44,0,0,0,4.21,0L85.08,85.27a56.47,56.47,0,0,0,4.72-8.72h0a66.62,66.62,0,0,0,3.27-9.3,50.41,50.41,0,0,0,1.81-11.33v0A38.27,38.27,0,0,0,93.79,45ZM77.62,69.5a9.22,9.22,0,0,1-.46,1.13,11.47,11.47,0,0,1-1.1,1.92A11.31,11.31,0,0,1,73.72,75a10.4,10.4,0,0,1-6.32,2.16,3.35,3.35,0,0,1-2.1-.72,4.74,4.74,0,0,1-1.18-1.52,5.73,5.73,0,0,1-.26-.64,9.48,9.48,0,0,1-.67,1.08c-.13.17-.33.39-.59.67a5.17,5.17,0,0,1-1,.79,6.57,6.57,0,0,1-1.23.67,3.59,3.59,0,0,1-1.44.28,3.48,3.48,0,0,1-1.51-.28,2.39,2.39,0,0,1-1.39-1.72c0-.12,0-.25-.06-.37a7.52,7.52,0,0,1-.73.63,4.26,4.26,0,0,1-2.57.87,2.4,2.4,0,0,1-1.44-.38,2.65,2.65,0,0,1-.77-.88,3.22,3.22,0,0,1-.25-.62,2,2,0,0,1-.08-.33,5.28,5.28,0,0,1-.08-.61l-.1.2a7.83,7.83,0,0,1-.72.84,4.36,4.36,0,0,1-.51.47,6.39,6.39,0,0,1-1.21.77,4.09,4.09,0,0,1-1.05.36,5.15,5.15,0,0,1-.77.08,3.27,3.27,0,0,1-2.93-1.47,5,5,0,0,1-.48-.88,6.28,6.28,0,0,1-.5-2.53,9.43,9.43,0,0,1,.75-3.65c.18-.42.39-.83.61-1.23l-.28,0-1.33,0a11,11,0,0,0-.67,1.72,17.08,17.08,0,0,0-.51,2.08c-.14.72-.25,1.43-.34,2.13l-.06.61A13.1,13.1,0,0,0,39.93,75a10.26,10.26,0,0,0,.11,1.1,8.74,8.74,0,0,0,.36,1.62,4.46,4.46,0,0,0,.74,1.44,1.53,1.53,0,0,0,.43.38,1.33,1.33,0,0,0,.78.24,3,3,0,0,0,1.21-.24l.17-.07a11.25,11.25,0,0,0,1.11-.64c.32-.23.61-.44.85-.65a1,1,0,0,1,.61-.3.66.66,0,0,1,.36.15.42.42,0,0,1,.21.31,1.64,1.64,0,0,1-.29.61,3,3,0,0,1-.47.59,4.81,4.81,0,0,1-.4.36,6.13,6.13,0,0,1-1.54.9,5.6,5.6,0,0,1-2.28.41A5.11,5.11,0,0,1,39,80.46a5.57,5.57,0,0,1-1.06-.93,5.77,5.77,0,0,1-.68-.94,7.53,7.53,0,0,1-.87-2.52,15.76,15.76,0,0,1-.24-2.67,14.79,14.79,0,0,1,.12-1.87c0-.35.1-.7.17-1.06.18-1,.43-2,.74-3.18l-2.1.1c-.72,0-1.46.09-2.21.16q-.1.36-.24.75c-.25.76-.56,1.62-.94,2.58a19.8,19.8,0,0,1-2,3.7,13.84,13.84,0,0,1-2.7,3,5.2,5.2,0,0,1-3.36,1.23,4,4,0,0,1-2.7-.9,6.85,6.85,0,0,1-1-1,6.24,6.24,0,0,1-.68-1,8.65,8.65,0,0,1-.85-2.31,10.17,10.17,0,0,1-.23-1.72,7.39,7.39,0,0,1,.39-2.49A5.26,5.26,0,0,1,19.27,68,6.86,6.86,0,0,1,22,65.8a11.51,11.51,0,0,1,3.7-1,23.32,23.32,0,0,1,4,0c.05-.17.09-.33.13-.5.5-1.84.91-3.58,1.26-5.22a21.56,21.56,0,0,0,.57-4,15.92,15.92,0,0,0-1.88.82,4.35,4.35,0,0,0-1.36,1l.85-.38c.32-.15.63-.28.92-.39a3.34,3.34,0,0,1,.75-.18c.2,0,.3,0,.3.13a.18.18,0,0,0-.05.11.21.21,0,0,1-.15.05,1.81,1.81,0,0,0-.69.43c-.36.29-.74.62-1.13,1s-.77.68-1.11,1l-.24.18c-.2.14-.33.18-.37.13a3.4,3.4,0,0,1-.54-.23,4.75,4.75,0,0,1-1.06-.75,5.55,5.55,0,0,1-1-1.33,4,4,0,0,1-.46-2,2.06,2.06,0,0,1,.92-1.61,8.37,8.37,0,0,1,2.23-1.26l.25-.09a16.4,16.4,0,0,1,2.4-.71,10.87,10.87,0,0,1,2.21-.28,3.5,3.5,0,0,1,1.87.44,3.21,3.21,0,0,1,1.05,1,3.49,3.49,0,0,1,.47,1.24,8.13,8.13,0,0,1,.1,1.1,19.15,19.15,0,0,1-.75,5.26c-.49,1.77-1,3.55-1.51,5.37.68.07,1.37.12,2.05.15s1.35.09,2,.16c.52-1.75.95-3.22,1.29-4.42s.62-2.23.85-3.11.38-1.6.48-2.18A8.82,8.82,0,0,0,40.45,54a3.19,3.19,0,0,0-.18-1.23,1.8,1.8,0,0,0-.41-.62,1.57,1.57,0,0,0-.41-.28q-.18-.07-.18-.18c0-.07.09-.13.28-.18a4.74,4.74,0,0,1,.69-.13l.85-.08.8,0a5,5,0,0,1,3,.74,3.12,3.12,0,0,1,1,2.7,8.8,8.8,0,0,1-.36,2.36c-.24.86-.54,1.75-.9,2.7s-.76,1.9-1.2,2.9-.88,2-1.29,3c.28,0,.59.06,1,.07a5.44,5.44,0,0,1,.75.08l.12,0a10.28,10.28,0,0,1,.67-.81,11.15,11.15,0,0,1,3-2.34,7.64,7.64,0,0,1,3.64-.9,4.35,4.35,0,0,1,2.88.9,2.81,2.81,0,0,1,1.08,2.24,3.31,3.31,0,0,1-.31,1.38q0-.11-.75-.36a9,9,0,0,0-2.59-.25,9.5,9.5,0,0,0-1.62.38,7.86,7.86,0,0,0-4.16,3.13A5.49,5.49,0,0,0,45,72.32a2.59,2.59,0,0,0,.51,1.93,1.57,1.57,0,0,0,1,.43,3.33,3.33,0,0,0,2.36-.92,8,8,0,0,0,1.62-2.18A11,11,0,0,0,51.41,69a10.3,10.3,0,0,0,.28-2.08.65.65,0,0,0-.07-.36.27.27,0,0,1-.08-.15c0-.07.1-.11.31-.11a4.1,4.1,0,0,1,1,.18,5.11,5.11,0,0,1,1.23.52,4.08,4.08,0,0,1,1,.79,1.44,1.44,0,0,1,.44,1,1.27,1.27,0,0,1-.16.51c-.44,1.13-.81,2-1.1,2.7s-.56,1.29-.8,1.87c-.08.18-.14.34-.19.48a2.66,2.66,0,0,0-.17.55c0,.27.12.41.36.41a2.55,2.55,0,0,0,1.9-.67A5.48,5.48,0,0,0,56,74c0-.21,0-.44.08-.69s.1-.68.17-1.06c.19-1,.42-2,.69-3.13s.56-2.26.87-3.44.6-2.29.88-3.34.5-2,.69-2.74a8.26,8.26,0,0,0,.28-1.75,5.16,5.16,0,0,0-.2-1.51A7.27,7.27,0,0,0,59,55.25a3.1,3.1,0,0,0-.41-.64.8.8,0,0,1-.18-.26c0-.1.2-.2.61-.28a7.18,7.18,0,0,1,1.49-.13,10,10,0,0,1,1.57.13,4.71,4.71,0,0,1,1.54.48,3.31,3.31,0,0,1,1.16,1,2.71,2.71,0,0,1,.46,1.61,10.14,10.14,0,0,1-.59,3.11c-.4,1.18-.86,2.44-1.39,3.77s-1.09,2.71-1.67,4.11q-.43,1-.78,2c-.25.69-.46,1.36-.65,2a2.66,2.66,0,0,0-.16.41,6,6,0,0,0-.2.72q-.11.41-.18.84a4,4,0,0,0-.08.8c0,.62.19.92.56.92a2.38,2.38,0,0,0,1.83-.69,5.73,5.73,0,0,0,1-1.49,11.86,11.86,0,0,0,.53-1.4c0-.17,0-.33,0-.47a10.82,10.82,0,0,1,.9-4.6,10.47,10.47,0,0,1,2.21-3.18,8.79,8.79,0,0,1,2.74-1.85,6.78,6.78,0,0,1,2.47-.59,4,4,0,0,1,4,4.11,4.86,4.86,0,0,1-.59,2.41A5.65,5.65,0,0,1,73.59,70a6.61,6.61,0,0,1-2.13,1.13,7.65,7.65,0,0,1-2.41.39,6.12,6.12,0,0,1-2-.31,6.4,6.4,0,0,0-.26.85,3.58,3.58,0,0,0-.1.85,3.24,3.24,0,0,0,.53,1.82,2,2,0,0,0,1.83.79,5.52,5.52,0,0,0,2.9-.82,11.38,11.38,0,0,0,2.41-1.92,12.75,12.75,0,0,0,1.7-2.19A6,6,0,0,0,76.8,69l0,0a.35.35,0,0,1,.26-.1l.15.06.16.07a.48.48,0,0,1,.2.38Z"/><path class="cls-1" d="M21.83,75.43a5.37,5.37,0,0,1-.33-1.16,6.2,6.2,0,0,1-.1-1,5.87,5.87,0,0,1,.36-2.15,3.32,3.32,0,0,1,1.43-1.59,9.86,9.86,0,0,1,3-1.11,42.94,42.94,0,0,1,5.19-.74c-.34.07-.69.15-1,.25-.65.18-1.13.3-1.43.36a1.79,1.79,0,0,0-.62,1c-.21.55-.48,1.25-.82,2.1-.07.21-.23.6-.49,1.19a16.87,16.87,0,0,1-.95,1.82A10.46,10.46,0,0,1,24.84,76a1.88,1.88,0,0,1-1.34.72,1.41,1.41,0,0,1-1-.39A2.75,2.75,0,0,1,21.83,75.43Z"/><path class="cls-1" d="M67.82,70.19c-.21,0-.31-.11-.31-.18a2.79,2.79,0,0,1,.36-1.13,9.46,9.46,0,0,1,.9-1.44,8.66,8.66,0,0,1,1.12-1.26A2.16,2.16,0,0,1,71,65.59a1.37,1.37,0,0,1,1.23.06,1.2,1.2,0,0,1,.51,1.13,3,3,0,0,1-.46,1.74,3.43,3.43,0,0,1-1.1,1,4.3,4.3,0,0,1-1.36.54,5.61,5.61,0,0,1-1.24.16A3,3,0,0,1,67.82,70.19Z"/><path class="cls-1" d="M76.06,72.55a11.47,11.47,0,0,0,1.1-1.92A29.36,29.36,0,0,1,20,76.86a6.85,6.85,0,0,0,1,1,4,4,0,0,0,2.7.9A5.2,5.2,0,0,0,27,77.56a13.84,13.84,0,0,0,2.7-3,19.8,19.8,0,0,0,2-3.7c.38-1,.69-1.82.94-2.58q.14-.39.24-.75c.75-.07,1.49-.12,2.21-.16l2.1-.1c-.31,1.13-.56,2.19-.74,3.18-.07.36-.12.71-.17,1.06a14.79,14.79,0,0,0-.12,1.87,15.76,15.76,0,0,0,.24,2.67,7.53,7.53,0,0,0,.87,2.52,5.77,5.77,0,0,0,.68.94,5.57,5.57,0,0,0,1.06.93,5.11,5.11,0,0,0,2.91.74,5.6,5.6,0,0,0,2.28-.41,6.13,6.13,0,0,0,1.54-.9,4.81,4.81,0,0,0,.4-.36,3,3,0,0,0,.47-.59,1.64,1.64,0,0,0,.29-.61.42.42,0,0,0-.21-.31.66.66,0,0,0-.36-.15,1,1,0,0,0-.61.3c-.24.21-.53.42-.85.65a11.25,11.25,0,0,1-1.11.64l-.17.07a3,3,0,0,1-1.21.24,1.33,1.33,0,0,1-.78-.24,1.53,1.53,0,0,1-.43-.38,4.46,4.46,0,0,1-.74-1.44A8.74,8.74,0,0,1,40,76.09a10.26,10.26,0,0,1-.11-1.1A13.1,13.1,0,0,1,40,73.62l.06-.61c.09-.7.2-1.41.34-2.13a17.08,17.08,0,0,1,.51-2.08,11,11,0,0,1,.67-1.72l1.33,0,.28,0c-.22.4-.43.81-.61,1.23a9.43,9.43,0,0,0-.75,3.65,6.28,6.28,0,0,0,.5,2.53,5,5,0,0,0,.48.88,3.27,3.27,0,0,0,2.93,1.47,5.15,5.15,0,0,0,.77-.08,4.09,4.09,0,0,0,1.05-.36,6.39,6.39,0,0,0,1.21-.77,4.36,4.36,0,0,0,.51-.47,7.83,7.83,0,0,0,.72-.84l.1-.2a5.28,5.28,0,0,0,.08.61,2,2,0,0,0,.08.33,3.22,3.22,0,0,0,.25.62,2.65,2.65,0,0,0,.77.88,2.4,2.4,0,0,0,1.44.38A4.26,4.26,0,0,0,55.29,76a7.52,7.52,0,0,0,.73-.63c0,.12,0,.25.06.37a2.39,2.39,0,0,0,1.39,1.72,3.48,3.48,0,0,0,1.51.28,3.59,3.59,0,0,0,1.44-.28,6.57,6.57,0,0,0,1.23-.67,5.17,5.17,0,0,0,1-.79c.26-.28.46-.5.59-.67a9.48,9.48,0,0,0,.67-1.08,5.73,5.73,0,0,0,.26.64,4.74,4.74,0,0,0,1.18,1.52,3.35,3.35,0,0,0,2.1.72A10.4,10.4,0,0,0,73.72,75,11.31,11.31,0,0,0,76.06,72.55Z"/><path class="cls-1" d="M77.29,67.87q0,.51,0,1l-.15-.06a.35.35,0,0,0-.26.1l0,0a6,6,0,0,1-.74,1.59,12.75,12.75,0,0,1-1.7,2.19A11.38,11.38,0,0,1,72,74.68a5.52,5.52,0,0,1-2.9.82,2,2,0,0,1-1.83-.79,3.24,3.24,0,0,1-.53-1.82,3.58,3.58,0,0,1,.1-.85,6.4,6.4,0,0,1,.26-.85,6.12,6.12,0,0,0,2,.31,7.65,7.65,0,0,0,2.41-.39A6.61,6.61,0,0,0,73.59,70a5.65,5.65,0,0,0,1.54-1.82,4.86,4.86,0,0,0,.59-2.41,4,4,0,0,0-4-4.11,6.78,6.78,0,0,0-2.47.59,8.79,8.79,0,0,0-2.74,1.85,10.47,10.47,0,0,0-2.21,3.18,10.82,10.82,0,0,0-.9,4.6c0,.14,0,.3,0,.47a11.86,11.86,0,0,1-.53,1.4,5.73,5.73,0,0,1-1,1.49,2.38,2.38,0,0,1-1.83.69c-.37,0-.56-.3-.56-.92a4,4,0,0,1,.08-.8q.07-.43.18-.84a6,6,0,0,1,.2-.72,2.66,2.66,0,0,1,.16-.41c.19-.66.4-1.33.65-2s.49-1.35.78-2c.58-1.4,1.14-2.77,1.67-4.11s1-2.59,1.39-3.77a10.14,10.14,0,0,0,.59-3.11,2.71,2.71,0,0,0-.46-1.61,3.31,3.31,0,0,0-1.16-1,4.71,4.71,0,0,0-1.54-.48,10,10,0,0,0-1.57-.13,7.18,7.18,0,0,0-1.49.13c-.41.08-.61.18-.61.28a.8.8,0,0,0,.18.26,3.1,3.1,0,0,1,.41.64,7.27,7.27,0,0,1,.44,1.08,5.16,5.16,0,0,1,.2,1.51,8.26,8.26,0,0,1-.28,1.75c-.19.78-.42,1.7-.69,2.74s-.57,2.16-.88,3.34-.6,2.33-.87,3.44-.5,2.16-.69,3.13c-.07.38-.13.74-.17,1.06S56,73.78,56,74a5.48,5.48,0,0,1-.55.64,2.55,2.55,0,0,1-1.9.67c-.24,0-.36-.14-.36-.41a2.66,2.66,0,0,1,.17-.55c0-.14.11-.3.19-.48.24-.58.51-1.21.8-1.87s.66-1.57,1.1-2.7a1.27,1.27,0,0,0,.16-.51,1.44,1.44,0,0,0-.44-1,4.08,4.08,0,0,0-1-.79,5.11,5.11,0,0,0-1.23-.52,4.1,4.1,0,0,0-1-.18c-.21,0-.31,0-.31.11a.27.27,0,0,0,.08.15.65.65,0,0,1,.07.36A10.3,10.3,0,0,1,51.41,69a11,11,0,0,1-.92,2.57,8,8,0,0,1-1.62,2.18,3.33,3.33,0,0,1-2.36.92,1.57,1.57,0,0,1-1-.43A2.59,2.59,0,0,1,45,72.32a5.49,5.49,0,0,1,.84-3.11A7.86,7.86,0,0,1,50,66.08a9.5,9.5,0,0,1,1.62-.38,9,9,0,0,1,2.59.25q.75.26.75.36a3.31,3.31,0,0,0,.31-1.38,2.81,2.81,0,0,0-1.08-2.24,4.35,4.35,0,0,0-2.88-.9,7.64,7.64,0,0,0-3.64.9,11.15,11.15,0,0,0-3,2.34,10.28,10.28,0,0,0-.67.81l-.12,0a5.44,5.44,0,0,0-.75-.08c-.36,0-.67,0-1-.07.41-1,.84-2,1.29-3s.84-2,1.2-2.9.66-1.84.9-2.7a8.8,8.8,0,0,0,.36-2.36,3.12,3.12,0,0,0-1-2.7,5,5,0,0,0-3-.74l-.8,0-.85.08a4.74,4.74,0,0,0-.69.13c-.19,0-.28.11-.28.18s.06.13.18.18a1.57,1.57,0,0,1,.41.28,1.8,1.8,0,0,1,.41.62A3.19,3.19,0,0,1,40.45,54a8.82,8.82,0,0,1-.16,1.64c-.1.58-.26,1.31-.48,2.18s-.51,1.91-.85,3.11-.77,2.67-1.29,4.42c-.65-.07-1.31-.12-2-.16S34.3,65.1,33.62,65c.51-1.82,1-3.6,1.51-5.37a19.15,19.15,0,0,0,.75-5.26,8.13,8.13,0,0,0-.1-1.1,3.49,3.49,0,0,0-.47-1.24,3.21,3.21,0,0,0-1.05-1,3.5,3.5,0,0,0-1.87-.44,10.87,10.87,0,0,0-2.21.28,16.4,16.4,0,0,0-2.4.71l-.25.09a8.37,8.37,0,0,0-2.23,1.26,2.06,2.06,0,0,0-.92,1.61,4,4,0,0,0,.46,2,5.55,5.55,0,0,0,1,1.33,4.75,4.75,0,0,0,1.06.75,3.4,3.4,0,0,0,.54.23c0,.05.17,0,.37-.13l.24-.18c.34-.27.71-.59,1.11-1s.77-.69,1.13-1A1.81,1.81,0,0,1,31,56.2a.21.21,0,0,0,.15-.05A.18.18,0,0,1,31.2,56c0-.1-.1-.14-.3-.13a3.34,3.34,0,0,0-.75.18c-.29.11-.6.24-.92.39l-.85.38a4.35,4.35,0,0,1,1.36-1A15.92,15.92,0,0,1,31.62,55a21.56,21.56,0,0,1-.57,4c-.35,1.64-.76,3.38-1.26,5.22,0,.17-.08.33-.13.5a23.32,23.32,0,0,0-4,0,11.51,11.51,0,0,0-3.7,1A6.86,6.86,0,0,0,19.27,68a5.26,5.26,0,0,0-.67,1.29c0-.48,0-1,0-1.45a29.37,29.37,0,0,1,58.73,0Z"/></g></g></svg>