<svg xmlns="http://www.w3.org/2000/svg" xmlns:xlink="http://www.w3.org/1999/xlink" viewBox="0 0 196.99 149.54"><defs><style>.cls-1{fill:#136b37;}.cls-2{fill:url(#linear-gradient);}.cls-3{fill:#18331b;}.cls-4{fill:#f6f7f7;}.cls-5{fill:#a4a3a4;}.cls-6{font-size:20px;fill:#231f20;font-family:Raleway-Regular, Raleway;letter-spacing:0.18em;}.cls-7{letter-spacing:0.2em;}</style><linearGradient id="linear-gradient" x1="73.64" y1="-12.07" x2="98.4" y2="80.09" gradientUnits="userSpaceOnUse"><stop offset="0" stop-color="#b2d041"/><stop offset="1" stop-color="#38833f"/></linearGradient></defs><g id="Layer_2" data-name="Layer 2"><g id="Layer_1-2" data-name="Layer 1"><path class="cls-1" d="M196.84,72.6a13.83,13.83,0,0,0-5.47-9.49v-.52c0-7.44-2.4-13.91-6.94-18.71a20.93,20.93,0,0,0-15.39-7,24.78,24.78,0,0,0-9,1.9,40.4,40.4,0,0,0,.33-4.82A22.65,22.65,0,0,0,157,21.54a21.05,21.05,0,0,0-7.16-7A23.21,23.21,0,0,0,142,11.71a37.77,37.77,0,0,0-6.22-.56,28.8,28.8,0,0,0-6.58.68,12.76,12.76,0,0,0-10.28,12.69,13.86,13.86,0,0,0,2.87,8.38,2.4,2.4,0,0,1,.11.23,11.09,11.09,0,0,1,.56,1.63,5.52,5.52,0,0,1,.11,1.26,24.68,24.68,0,0,1-.54,3.2c-.15.69-.31,1.41-.47,2.16a22,22,0,0,0-13.11-4,30,30,0,0,0-7.16.87c.12-.47.27-1,.39-1.41a46.81,46.81,0,0,0,1.45-11.12c0-10.44-4-15.94-7.43-18.72-3.88-3.17-8.94-4.77-15-4.77-.89,0-1.88,0-3,.11s-2.14.18-3.2.33a24,24,0,0,0-3.52.75,12.12,12.12,0,0,0-4.3,2.32A22.05,22.05,0,0,0,63.75,3.3,18.91,18.91,0,0,0,52.55,0a38.13,38.13,0,0,0-8.73,1.2,55.85,55.85,0,0,0-9.51,3.23,35,35,0,0,0-9.39,6,19.78,19.78,0,0,0-6.69,14.75A28,28,0,0,0,21,37.78a29.09,29.09,0,0,0,5.15,7.45,27.59,27.59,0,0,0,3,2.68,39.53,39.53,0,0,0-11.88,4A32,32,0,0,0,5.12,63.21C1.72,68.54,0,75.13,0,82.82a47,47,0,0,0,.89,8.1,43.63,43.63,0,0,0,3.55,11,35.25,35.25,0,0,0,7.42,10.35,21,21,0,0,0,14.87,5.87,24.1,24.1,0,0,0,16.66-6.81A56,56,0,0,0,53.46,98.81l.28-.47.09.69a40.56,40.56,0,0,0,3.83,12.36,29.33,29.33,0,0,0,8.47,10.28,23.37,23.37,0,0,0,14.52,4.54,24.84,24.84,0,0,0,11-2.36,29.15,29.15,0,0,0,7.11-4.77,24.35,24.35,0,0,0,4.88-6.18A23,23,0,0,0,105,110a16.74,16.74,0,0,0,7.74,1.77,20.33,20.33,0,0,0,6.63-1.12,18.46,18.46,0,0,0,2.83,1.91,18.84,18.84,0,0,0,9.07,2.12,19.25,19.25,0,0,0,8.4-1.9,31,31,0,0,0,5.49-3.36l.21-.17a19.26,19.26,0,0,0,10.39,3.36h.41a36.64,36.64,0,0,0,13.45-2.55A40.71,40.71,0,0,0,181.3,103a48.08,48.08,0,0,0,9.1-10.71,55,55,0,0,0,6-13.25l.58-1.9V73.59Z"/><path class="cls-2" d="M196.84,72.6a13.83,13.83,0,0,0-5.47-9.49v-.52c0-7.44-2.4-13.91-6.94-18.71a20.93,20.93,0,0,0-15.39-7,24.78,24.78,0,0,0-9,1.9,40.4,40.4,0,0,0,.33-4.82A22.65,22.65,0,0,0,157,21.54a21.05,21.05,0,0,0-7.16-7A23.21,23.21,0,0,0,142,11.71a37.77,37.77,0,0,0-6.22-.56,28.8,28.8,0,0,0-6.58.68,12.76,12.76,0,0,0-10.28,12.69,13.86,13.86,0,0,0,2.87,8.38,2.4,2.4,0,0,1,.11.23,11.09,11.09,0,0,1,.56,1.63,5.52,5.52,0,0,1,.11,1.26,24.68,24.68,0,0,1-.54,3.2c-.15.69-.31,1.41-.47,2.16a22,22,0,0,0-13.11-4,30,30,0,0,0-7.16.87c.12-.47.27-1,.39-1.41a46.81,46.81,0,0,0,1.45-11.12c0-10.44-4-15.94-7.43-18.72-3.88-3.17-8.94-4.77-15-4.77-.89,0-1.88,0-3,.11s-2.14.18-3.2.33a24,24,0,0,0-3.52.75,12.12,12.12,0,0,0-4.3,2.32A22.05,22.05,0,0,0,63.75,3.3,18.91,18.91,0,0,0,52.55,0a38.13,38.13,0,0,0-8.73,1.2,55.85,55.85,0,0,0-9.51,3.23,35,35,0,0,0-9.39,6,19.78,19.78,0,0,0-6.69,14.75A28,28,0,0,0,21,37.78a29.09,29.09,0,0,0,5.15,7.45,27.59,27.59,0,0,0,3,2.68,39.53,39.53,0,0,0-11.88,4A32,32,0,0,0,5.12,63.21C1.72,68.54,0,75.13,0,82.82a47,47,0,0,0,.89,8.1,43.63,43.63,0,0,0,3.55,11,35.25,35.25,0,0,0,7.42,10.35,21,21,0,0,0,14.87,5.87,24.1,24.1,0,0,0,16.66-6.81A56,56,0,0,0,53.46,98.81l.28-.47.09.69a40.56,40.56,0,0,0,3.83,12.36,29.33,29.33,0,0,0,8.47,10.28,23.37,23.37,0,0,0,14.52,4.54,24.84,24.84,0,0,0,11-2.36,29.15,29.15,0,0,0,7.11-4.77,24.35,24.35,0,0,0,4.88-6.18A23,23,0,0,0,105,110a16.74,16.74,0,0,0,7.74,1.77,20.33,20.33,0,0,0,6.63-1.12,18.46,18.46,0,0,0,2.83,1.91,18.84,18.84,0,0,0,9.07,2.12,19.25,19.25,0,0,0,8.4-1.9,31,31,0,0,0,5.49-3.36l.21-.17a19.26,19.26,0,0,0,10.39,3.36h.41a36.64,36.64,0,0,0,13.45-2.55A40.71,40.71,0,0,0,181.3,103a48.08,48.08,0,0,0,9.1-10.71,55,55,0,0,0,6-13.25l.58-1.9V73.59Z"/><path class="cls-1" d="M80.65,121.06a19.34,19.34,0,0,1-12-3.65,24.54,24.54,0,0,1-7.05-8.56,35.09,35.09,0,0,1-3.29-10.67L56.38,84.53l-6.69,11.4a51.44,51.44,0,0,1-9.18,11.42A20,20,0,0,1,26.73,113a16.82,16.82,0,0,1-11.92-4.65,30.25,30.25,0,0,1-6.35-8.85,38,38,0,0,1-3.1-9.6,42.51,42.51,0,0,1-.8-7.09c0-6.59,1.43-12.17,4.25-16.61a27.37,27.37,0,0,1,10.33-9.66A35.51,35.51,0,0,1,29.77,53l11.5-2-9.62-7.38a23,23,0,0,1-6.72-8.4,22.43,22.43,0,0,1-2.15-10,14.4,14.4,0,0,1,5-10.74A30.49,30.49,0,0,1,36,9.22a50.79,50.79,0,0,1,8.78-3,34.09,34.09,0,0,1,7.79-1.1,14.9,14.9,0,0,1,8.78,2.51,17.91,17.91,0,0,1,2.29,1.94l2.78,2.79,3-2.52a7.69,7.69,0,0,1,2.76-1.47A18.56,18.56,0,0,1,75,7.77c1-.13,1.91-.23,2.9-.3s1.91-.1,2.72-.1c5.13,0,9.3,1.28,12.37,3.79,3.68,3,5.55,7.92,5.55,14.56a41,41,0,0,1-1.28,9.73c-.05.2-.37,1.33-.37,1.33L94.74,45.1l7.51-1.82a26.16,26.16,0,0,1,6.2-.75,17.86,17.86,0,0,1,10.66,3.19l5.35,3.84,2-9.14a28.07,28.07,0,0,0,.66-4.15V36a10.87,10.87,0,0,0-.34-2.84v0a15.89,15.89,0,0,0-.88-2.47l-.37-.76-.29-.38a8.3,8.3,0,0,1-1.78-5.05c0-1.83.65-6.24,6.66-7.66a25.06,25.06,0,0,1,5.64-.57,32.88,32.88,0,0,1,5.54.51,19.08,19.08,0,0,1,6.45,2.32,16.41,16.41,0,0,1,5.55,5.42A17.19,17.19,0,0,1,155.83,34a34.2,34.2,0,0,1-.29,4.13l-1,8.26,7-2.71A20.82,20.82,0,0,1,169,42a16.74,16.74,0,0,1,12.28,5.63c3.59,3.8,5.49,9,5.49,15L186.76,66,189,67.5a8.56,8.56,0,0,1,3.37,6l.08.57v2.23l-.33,1.09a49.33,49.33,0,0,1-5.42,11.94,42.63,42.63,0,0,1-8.16,9.61,35.92,35.92,0,0,1-10.44,6.36,32.57,32.57,0,0,1-12,2.27h-.32a15.07,15.07,0,0,1-8.09-2.6l-2.55-1.78-2.64,2.09a25.72,25.72,0,0,1-4.68,2.87,15.37,15.37,0,0,1-6.62,1.49,14.8,14.8,0,0,1-7.1-1.62A14.43,14.43,0,0,1,122,106.5L120.15,105l-2.14.73a16.44,16.44,0,0,1-5.31.89,12.8,12.8,0,0,1-5.86-1.3l-4.22-2.16-1.84,4.8a19.23,19.23,0,0,1-1,2.23,19.66,19.66,0,0,1-3.9,4.89,24.57,24.57,0,0,1-6,4A20.9,20.9,0,0,1,80.65,121.06Z"/><path class="cls-3" d="M66,26.38A72.37,72.37,0,0,1,63.79,44q-2.2,8.84-4.48,17.92c2,.23,4,.4,6.07.51s4,.29,5.93.52q2.28-8.74,3.79-14.75t2.51-10.37q1-4.38,1.44-7.29A34.93,34.93,0,0,0,79.51,25,12.1,12.1,0,0,0,79,20.9a5.86,5.86,0,0,0-1.22-2.06,4.7,4.7,0,0,0-1.21-.95c-.36-.17-.53-.37-.53-.6s.27-.42.83-.6a14.5,14.5,0,0,1,2.05-.43c.81-.11,1.65-.19,2.51-.25s1.64-.09,2.35-.09q5.77,0,8.81,2.49t3,9a33.43,33.43,0,0,1-1.06,7.89q-1.06,4.29-2.66,9T88.32,54q-2,5-3.8,9.95c.81.11,1.75.2,2.81.25a12.27,12.27,0,0,1,2.2.26,1.33,1.33,0,0,1,1.14.86,4,4,0,0,1,.23,1.2,2.91,2.91,0,0,1-.23.94,1.25,1.25,0,0,1-1,.77,14.91,14.91,0,0,1-2.89.43c-1,.06-2.33.09-4,.09a39.65,39.65,0,0,0-2,5.74,69.9,69.9,0,0,0-1.52,7q-.61,3.6-1,7.11A62.7,62.7,0,0,0,78,95.15c0,.68.1,1.91.3,3.68a35.79,35.79,0,0,0,1.07,5.4,15.5,15.5,0,0,0,2.2,4.81,4.24,4.24,0,0,0,3.57,2,8.16,8.16,0,0,0,4.1-1,27.21,27.21,0,0,0,3.27-2.14,30.79,30.79,0,0,0,2.5-2.14,2.93,2.93,0,0,1,1.82-1,1.79,1.79,0,0,1,1.07.51,1.45,1.45,0,0,1,.61,1,5.93,5.93,0,0,1-.84,2.06,13,13,0,0,1-2.58,3.17,18.58,18.58,0,0,1-4.56,3,15.21,15.21,0,0,1-6.76,1.37,13.85,13.85,0,0,1-8.58-2.48A17.78,17.78,0,0,1,70,107.15a27.59,27.59,0,0,1-2.59-8.4,61.91,61.91,0,0,1-.68-8.92,58.53,58.53,0,0,1,.84-9.77q.82-5,2.2-10.64l-6.23.35c-2.13.11-4.3.28-6.53.51q-1.22,4.64-3.49,11.15a67.44,67.44,0,0,1-5.77,12.34,44.13,44.13,0,0,1-8,10,14.38,14.38,0,0,1-9.95,4.11,11,11,0,0,1-8-3A23.17,23.17,0,0,1,16.93,98a30.41,30.41,0,0,1-2.5-7.71,36.1,36.1,0,0,1-.69-5.75q0-7.71,3.12-12.6a21,21,0,0,1,8-7.46,30.64,30.64,0,0,1,10.94-3.26A59.51,59.51,0,0,1,47.61,61Q50,50.91,51.71,41.9a81,81,0,0,0,1.68-13.46,46.14,46.14,0,0,0-5.55,2.74,12.9,12.9,0,0,0-4,3.43c.7-.34,1.54-.77,2.5-1.28A25.4,25.4,0,0,1,49.06,32a8.43,8.43,0,0,1,2.2-.6c.61-.06.91.09.91.43a.52.52,0,0,0-.15.34.57.57,0,0,1-.46.17c-.3,0-1,.49-2.05,1.46s-2.18,2.06-3.34,3.26-2.25,2.26-3.26,3.17-1.63,1.26-1.83,1a10.17,10.17,0,0,1-1.59-.77A13.27,13.27,0,0,1,36.37,38a17.55,17.55,0,0,1-3-4.46A14.84,14.84,0,0,1,32,26.9a7.27,7.27,0,0,1,2.73-5.41,24.93,24.93,0,0,1,6.61-4.2,45.62,45.62,0,0,1,7.82-2.65,29.2,29.2,0,0,1,6.53-1,9.44,9.44,0,0,1,5.55,1.46,10.19,10.19,0,0,1,3.11,3.43,12.44,12.44,0,0,1,1.37,4.12A27.08,27.08,0,0,1,66,26.38Zm-20.5,46.3c.91-.23,2.33-.63,4.25-1.2a30.66,30.66,0,0,1,3-.86,116.28,116.28,0,0,0-15.34,2.49,27.36,27.36,0,0,0-9,3.69,10.8,10.8,0,0,0-4.26,5.31,22.12,22.12,0,0,0-1.06,7.21,24.47,24.47,0,0,0,.3,3.42,19.14,19.14,0,0,0,1,3.86,9.29,9.29,0,0,0,1.9,3.09,4,4,0,0,0,3,1.29c1.31,0,2.63-.81,4-2.41A32.31,32.31,0,0,0,37,93a59.78,59.78,0,0,0,2.81-6.09C40.55,85,41,83.66,41.23,83q1.53-4.29,2.43-7C44.27,74.11,44.88,73,45.49,72.68Z"/><path class="cls-3" d="M128.72,91.89a20.09,20.09,0,0,1-5.32,6.68,11.59,11.59,0,0,1-7.59,2.92,6.37,6.37,0,0,1-4.25-1.29,8.27,8.27,0,0,1-2.28-2.91,11.33,11.33,0,0,1-1-3.17,18.49,18.49,0,0,1-.23-2.06l-.3.68a22.48,22.48,0,0,1-3.65,4.38,19.16,19.16,0,0,1-3.56,2.57,11.06,11.06,0,0,1-3.12,1.2,12.9,12.9,0,0,1-2.28.26,9.4,9.4,0,0,1-8.65-4.89,22,22,0,0,1-2.89-11.4,35.29,35.29,0,0,1,2.2-12.18,37.91,37.91,0,0,1,6.08-10.8,33.44,33.44,0,0,1,8.88-7.8,20.66,20.66,0,0,1,10.79-3,11.9,11.9,0,0,1,8.5,3,9.8,9.8,0,0,1,3.19,7.46,12.09,12.09,0,0,1-.91,4.63c0-.23-.73-.63-2.2-1.21s-4-.85-7.67-.85a25.57,25.57,0,0,0-4.79,1.28,22.67,22.67,0,0,0-6.53,3.69,24.25,24.25,0,0,0-5.77,6.77,20,20,0,0,0-2.5,10.38q0,5,1.51,6.43a4.48,4.48,0,0,0,3,1.46,9.22,9.22,0,0,0,7-3.09,26.62,26.62,0,0,0,4.78-7.29,38.15,38.15,0,0,0,2.74-8.57,39.79,39.79,0,0,0,.83-7,2.22,2.22,0,0,0-.23-1.2,1.06,1.06,0,0,1-.22-.51c0-.23.3-.34.91-.34a10.83,10.83,0,0,1,3.11.6A15.52,15.52,0,0,1,120,68.48a13.11,13.11,0,0,1,3,2.66,5,5,0,0,1,1.3,3.26,4.52,4.52,0,0,1-.46,1.71q-2,5.65-3.27,9t-2.35,6.26a18.39,18.39,0,0,0-1.06,3.43c0,.92.35,1.37,1.06,1.37a7.11,7.11,0,0,0,5.62-2.23,16.75,16.75,0,0,0,3-4.88,35.73,35.73,0,0,0,1.59-4.89c.36-1.48.84-2.29,1.45-2.4.8,0,1.21.63,1.21,1.89a9.37,9.37,0,0,1-.38,2.4c-.25.91-.53,1.77-.83,2.57s-.59,1.52-.84,2.14A5.6,5.6,0,0,0,128.72,91.89Z"/><path class="cls-3" d="M137.83,85.89a13.44,13.44,0,0,0-.45,1.37c-.21.68-.41,1.48-.61,2.4s-.38,1.86-.53,2.83a16.4,16.4,0,0,0-.23,2.66c0,2,.55,3.08,1.67,3.08a6.58,6.58,0,0,0,5.39-2.31,18.79,18.79,0,0,0,3-5,41.49,41.49,0,0,0,1.67-5c.41-1.54,1-2.31,1.67-2.31a.85.85,0,0,1,.92.77,6.54,6.54,0,0,1,.15,1.11,27.23,27.23,0,0,1-.46,3.6,21.81,21.81,0,0,1-3.19,7.21q-.6.86-1.74,2.22a17.15,17.15,0,0,1-2.81,2.66,20.35,20.35,0,0,1-3.65,2.23,9.72,9.72,0,0,1-4.25,1,9.36,9.36,0,0,1-4.48-1,7.58,7.58,0,0,1-2.74-2.4,9.12,9.12,0,0,1-1.36-3.34,18.64,18.64,0,0,1-.38-3.78,50.13,50.13,0,0,1,.83-8q.84-4.89,2-10.46T130.84,64c.92-3.94,1.77-7.66,2.59-11.14s1.49-6.55,2-9.18a31.87,31.87,0,0,0,.83-5.83,18.93,18.93,0,0,0-.6-5.06,23.9,23.9,0,0,0-1.3-3.6,12,12,0,0,0-1.21-2.14,2.35,2.35,0,0,1-.53-.86c0-.34.6-.66,1.82-.94a19.26,19.26,0,0,1,4.4-.43,27.24,27.24,0,0,1,4.64.43,13.21,13.21,0,0,1,4.55,1.63,10,10,0,0,1,3.42,3.34,9.88,9.88,0,0,1,1.37,5.4A37.52,37.52,0,0,1,151.12,46q-1.74,5.91-4.1,12.6t-4.94,13.72A140,140,0,0,0,137.83,85.89Z"/><path class="cls-3" d="M159.24,102.35A9.16,9.16,0,0,1,153,100a16,16,0,0,1-3.5-5.06,21.46,21.46,0,0,1-1.59-5.66,36.51,36.51,0,0,1-.38-4.55,40.1,40.1,0,0,1,2.66-15.34,35.48,35.48,0,0,1,6.53-10.63,26.3,26.3,0,0,1,8.12-6.18,18.06,18.06,0,0,1,7.29-2,10.94,10.94,0,0,1,8.13,3.77,13.89,13.89,0,0,1,3.57,10,18.16,18.16,0,0,1-1.75,8.06,19.23,19.23,0,0,1-4.55,6.09,20,20,0,0,1-6.31,3.77,20.41,20.41,0,0,1-7.13,1.29,16.83,16.83,0,0,1-5.93-1,25.54,25.54,0,0,0-.76,2.83,14,14,0,0,0-.3,2.82,11.62,11.62,0,0,0,1.59,6.09c1.07,1.78,2.86,2.66,5.4,2.66a15,15,0,0,0,8.58-2.74,35.55,35.55,0,0,0,7.14-6.43,41.75,41.75,0,0,0,5-7.29,21.21,21.21,0,0,0,2.2-5.32l.15-.17a1,1,0,0,1,.76-.34,5.34,5.34,0,0,1,.91.43c.31.17.51.6.61,1.28v.52A42.48,42.48,0,0,1,184.84,87a36.37,36.37,0,0,1-6.91,8.15,30.34,30.34,0,0,1-8.74,5.31A26.82,26.82,0,0,1,159.24,102.35Zm10.49-38.59a5.82,5.82,0,0,0-3.12,2,29.36,29.36,0,0,0-3.34,4.2,32.83,32.83,0,0,0-2.66,4.8,10.11,10.11,0,0,0-1.06,3.77c0,.23.3.43.91.6a7.91,7.91,0,0,0,2.13.26,15.54,15.54,0,0,0,3.64-.52,12.21,12.21,0,0,0,4-1.8,11.17,11.17,0,0,0,3.26-3.51,11.06,11.06,0,0,0,1.37-5.83c0-1.83-.51-3.09-1.52-3.77A3.69,3.69,0,0,0,169.73,63.76Z"/><path class="cls-4" d="M80.65,115.19a15.18,15.18,0,0,1-9.43-2.78,19.52,19.52,0,0,1-5.63-6.83,29.38,29.38,0,0,1-2.76-9,63,63,0,0,1-.71-9.2A61.29,61.29,0,0,1,63,77.32c.45-2.66,1-5.5,1.7-8.49l-4.16.23c-1.77.1-3.59.23-5.45.41-.8,2.91-1.89,6.32-3.23,10.17a69.17,69.17,0,0,1-5.93,12.68,46.27,46.27,0,0,1-8.27,10.31,15.8,15.8,0,0,1-10.91,4.5,12.47,12.47,0,0,1-9-3.41,25.08,25.08,0,0,1-5.29-7.36,32.38,32.38,0,0,1-2.65-8.18,37.94,37.94,0,0,1-.72-6.09c0-5.48,1.15-10.06,3.4-13.6a22.66,22.66,0,0,1,8.57-8A31.78,31.78,0,0,1,32.5,57.07a61.92,61.92,0,0,1,7-.4c1.29,0,2.58,0,3.85.12,1.47-6.18,2.73-12.12,3.76-17.66.5-2.7.88-5.09,1.16-7.17-.22.17-.52.43-.92.8-1.06,1-2.16,2-3.28,3.19s-2.3,2.31-3.34,3.24-1.9,1.48-2.6,1.48a1.61,1.61,0,0,1-.75-.19,15.17,15.17,0,0,1-1.66-.82,14.62,14.62,0,0,1-3.49-2.77A19.4,19.4,0,0,1,28.9,32a16.91,16.91,0,0,1-1.56-7.53,9,9,0,0,1,3.3-6.74,26.06,26.06,0,0,1,7-4.46,46.28,46.28,0,0,1,8.07-2.74,30.33,30.33,0,0,1,6.84-1,10.77,10.77,0,0,1,6.35,1.72,11.78,11.78,0,0,1,3.61,4A14.49,14.49,0,0,1,64.08,20a29.94,29.94,0,0,1,.32,4,74.61,74.61,0,0,1-2.26,18q-2,7.88-4,15.94c1.4.14,2.8.24,4.19.32,1.6.09,3.19.22,4.74.38q2-7.85,3.44-13.37c1-3.94,1.84-7.42,2.5-10.33s1.13-5.29,1.42-7.16a34.66,34.66,0,0,0,.43-5.19,9.88,9.88,0,0,0-.41-3.43,4.2,4.2,0,0,0-.83-1.46,3.63,3.63,0,0,0-.8-.65,2.37,2.37,0,0,1-1.45-2.17c0-.76.33-1.76,2-2.26a15.14,15.14,0,0,1,2.26-.48c.85-.11,1.71-.2,2.61-.26s1.7-.09,2.44-.09c4.15,0,7.42.94,9.7,2.81C92.78,16.59,94,20.09,94,25a35.23,35.23,0,0,1-1.12,8.35c-.72,2.9-1.63,6-2.7,9.15s-2.28,6.43-3.61,9.78c-1,2.57-2,5.17-3,7.75l.68,0a12.61,12.61,0,0,1,2.5.31A2.78,2.78,0,0,1,89,62.29a5.7,5.7,0,0,1,.33,1.8A4.52,4.52,0,0,1,89,65.71a2.81,2.81,0,0,1-2.09,1.78,16.37,16.37,0,0,1-3.11.46C83,68,81.94,68,80.7,68a41.89,41.89,0,0,0-1.48,4.54c-.59,2.17-1.09,4.45-1.48,6.76s-.73,4.72-1,7a58.52,58.52,0,0,0-.37,6.4,34.55,34.55,0,0,0,.29,3.46,33,33,0,0,0,1,5.11,13.6,13.6,0,0,0,1.94,4.25A2.8,2.8,0,0,0,82,107a6.91,6.91,0,0,0,3.42-.85,25.81,25.81,0,0,0,3.09-2,30.15,30.15,0,0,0,2.37-2,4.18,4.18,0,0,1,2.81-1.44,3.07,3.07,0,0,1,2,.85,3.12,3.12,0,0,1,1.21,2.4,6.53,6.53,0,0,1-1.05,2.95,14.75,14.75,0,0,1-2.91,3.6A20.38,20.38,0,0,1,88,113.68,16.75,16.75,0,0,1,80.65,115.19ZM39.75,71.3q-2.85.49-5.09,1.07a26.35,26.35,0,0,0-8.5,3.47,9.19,9.19,0,0,0-3.63,4.47,20.31,20.31,0,0,0-1,6.59A21.83,21.83,0,0,0,21.85,90a16.34,16.34,0,0,0,.89,3.47A7.32,7.32,0,0,0,24.28,96a2.57,2.57,0,0,0,2,.82c.87,0,1.82-.62,2.83-1.85a31.73,31.73,0,0,0,3.46-5.28,59.12,59.12,0,0,0,2.72-5.91c.91-2.32,1.26-3.35,1.39-3.79,1-2.94,1.85-5.27,2.45-7.09A16.85,16.85,0,0,1,39.75,71.3Z"/><path class="cls-4" d="M61,23.5a72.37,72.37,0,0,1-2.2,17.58Q56.63,49.92,54.35,59c2,.23,4,.4,6.08.51s4,.29,5.92.52q2.28-8.74,3.8-14.75t2.5-10.37q1-4.38,1.45-7.29a36.1,36.1,0,0,0,.45-5.49A12.1,12.1,0,0,0,74,18,5.86,5.86,0,0,0,72.81,16a4.89,4.89,0,0,0-1.22-1c-.36-.17-.53-.37-.53-.6s.28-.42.83-.6a14.5,14.5,0,0,1,2-.43c.81-.11,1.65-.19,2.51-.25S78.1,13,78.81,13c3.84,0,6.78.83,8.8,2.49s3,4.66,3,9a32.92,32.92,0,0,1-1.06,7.89q-1.07,4.29-2.66,9t-3.57,9.69q-2,5-3.8,10c.81.11,1.75.2,2.81.25a12.42,12.42,0,0,1,2.21.26,1.36,1.36,0,0,1,1.14.86,3.93,3.93,0,0,1,.22,1.2,2.85,2.85,0,0,1-.22.94,1.28,1.28,0,0,1-1,.77,14.79,14.79,0,0,1-2.89.43c-1,.06-2.33.09-4,.09a40.9,40.9,0,0,0-2,5.74,69.9,69.9,0,0,0-1.52,7q-.6,3.6-1,7.11A62.7,62.7,0,0,0,73,92.27,36.69,36.69,0,0,0,73.34,96a34.54,34.54,0,0,0,1.06,5.4,15.73,15.73,0,0,0,2.2,4.81,4.24,4.24,0,0,0,3.57,2,8.13,8.13,0,0,0,4.1-1A26.44,26.44,0,0,0,87.54,105,30.79,30.79,0,0,0,90,102.9a2.92,2.92,0,0,1,1.83-1,1.79,1.79,0,0,1,1.06.51,1.45,1.45,0,0,1,.61,1,5.93,5.93,0,0,1-.84,2.06,13,13,0,0,1-2.58,3.17,18.2,18.2,0,0,1-4.56,3A15.16,15.16,0,0,1,78.81,113a13.86,13.86,0,0,1-8.59-2.48,17.88,17.88,0,0,1-5.16-6.26,27.3,27.3,0,0,1-2.58-8.4A60.57,60.57,0,0,1,61.79,87a58.53,58.53,0,0,1,.84-9.77q.84-5,2.2-10.64l-6.23.35q-3.18.17-6.53.51Q50.86,72,48.58,78.55a66.79,66.79,0,0,1-5.77,12.34,44.13,44.13,0,0,1-8,10A14.36,14.36,0,0,1,24.89,105a11,11,0,0,1-8-3A23.14,23.14,0,0,1,12,95.09a30.45,30.45,0,0,1-2.51-7.71,35.81,35.81,0,0,1-.68-5.75q0-7.71,3.11-12.6a21,21,0,0,1,8-7.46,30.64,30.64,0,0,1,10.94-3.26,59.62,59.62,0,0,1,11.85-.17Q45.09,48,46.76,39a81.78,81.78,0,0,0,1.67-13.46,46.14,46.14,0,0,0-5.55,2.74,12.9,12.9,0,0,0-4,3.43c.71-.34,1.54-.77,2.51-1.28a25.3,25.3,0,0,1,2.73-1.29,8.43,8.43,0,0,1,2.2-.6c.61-.06.91.09.91.43a.52.52,0,0,0-.15.34.55.55,0,0,1-.45.17c-.31,0-1,.49-2,1.46S42.38,33,41.21,34.22,39,36.48,38,37.39s-1.62,1.26-1.82,1a9.57,9.57,0,0,1-1.6-.77,13.24,13.24,0,0,1-3.11-2.49,17.31,17.31,0,0,1-3-4.46A14.84,14.84,0,0,1,27,24a7.25,7.25,0,0,1,2.74-5.41,24.71,24.71,0,0,1,6.6-4.2,45.72,45.72,0,0,1,7.83-2.65,29.12,29.12,0,0,1,6.53-.95,9.42,9.42,0,0,1,5.54,1.46,10.09,10.09,0,0,1,3.11,3.43,12.21,12.21,0,0,1,1.37,4.12A27.08,27.08,0,0,1,61,23.5ZM40.53,69.8c.91-.23,2.33-.63,4.25-1.2a31.45,31.45,0,0,1,3-.86,116.56,116.56,0,0,0-15.34,2.49,27.45,27.45,0,0,0-9,3.69,10.72,10.72,0,0,0-4.25,5.31,22.11,22.11,0,0,0-1.07,7.21,23.23,23.23,0,0,0,.31,3.42,18.49,18.49,0,0,0,1,3.86,9.29,9.29,0,0,0,1.9,3.09,4,4,0,0,0,3,1.29c1.31,0,2.63-.81,3.95-2.41A32.31,32.31,0,0,0,32,90.12,57.69,57.69,0,0,0,34.83,84c.76-1.94,1.24-3.25,1.45-3.94q1.52-4.29,2.43-7C39.32,71.23,39.92,70.14,40.53,69.8Z"/><path class="cls-4" d="M112.7,100.79a7.79,7.79,0,0,1-5.17-1.63,10.25,10.25,0,0,1-2.71-3.49,14.81,14.81,0,0,1-.73-1.9A19.7,19.7,0,0,1,102,96a20.62,20.62,0,0,1-3.86,2.78,12.49,12.49,0,0,1-3.52,1.34,13.77,13.77,0,0,1-2.53.28,10.86,10.86,0,0,1-9.92-5.65A24,24,0,0,1,79,82.44,37.16,37.16,0,0,1,81.3,69.61a39.87,39.87,0,0,1,6.35-11.3A35.24,35.24,0,0,1,97,50.14a22.15,22.15,0,0,1,11.5-3.2,13.3,13.3,0,0,1,9.47,3.4,11.61,11.61,0,0,1,3.74,8.78,14.05,14.05,0,0,1-1,5.35l-2.9-.72a1.57,1.57,0,0,0,.48,1.17l-.25-.14A15.08,15.08,0,0,1,121,67.54a6.83,6.83,0,0,1,1.7,4.44,6.27,6.27,0,0,1-.61,2.48c-1.26,3.61-2.36,6.66-3.23,8.92s-1.64,4.29-2.35,6.23c-.46,1.26-.7,2-.82,2.41a5.38,5.38,0,0,0,4-1.71,14.93,14.93,0,0,0,2.73-4.38,34.16,34.16,0,0,0,1.51-4.62c.2-.82.79-3.3,2.66-3.65l.13,0h.12c1.33,0,2.74.94,2.74,3.6a11.12,11.12,0,0,1-.45,2.91c-.27,1-.57,1.89-.89,2.74s-.59,1.54-.85,2.17c-.11.28-.19.49-.24.64v.21l-.19.38a21.89,21.89,0,0,1-5.74,7.25A13.1,13.1,0,0,1,112.7,100.79Zm-5-37c-.75.2-1.66.48-2.7.84a20.9,20.9,0,0,0-6.1,3.45,22.87,22.87,0,0,0-5.38,6.32,18.22,18.22,0,0,0-2.25,9.42c0,3.78.69,4.84,1,5.12a3.08,3.08,0,0,0,2,1,7.75,7.75,0,0,0,5.94-2.61,25.18,25.18,0,0,0,4.48-6.83,36.44,36.44,0,0,0,2.6-8.15,37.91,37.91,0,0,0,.8-6.59c0-.15,0-.25,0-.31a2.64,2.64,0,0,1-.44-1.4A1.84,1.84,0,0,1,107.71,63.78Z"/><path class="cls-4" d="M123.76,89a19.93,19.93,0,0,1-5.31,6.68,11.59,11.59,0,0,1-7.6,2.92,6.37,6.37,0,0,1-4.25-1.29,8.51,8.51,0,0,1-2.28-2.91,11.67,11.67,0,0,1-1-3.17,17.65,17.65,0,0,1-.22-2.06l-.31.68a22.82,22.82,0,0,1-3.64,4.38,19.54,19.54,0,0,1-3.57,2.57A11,11,0,0,1,92.47,98a12.9,12.9,0,0,1-2.27.26,9.41,9.41,0,0,1-8.66-4.89A22.05,22.05,0,0,1,78.65,82,35.07,35.07,0,0,1,80.86,69.8,37.64,37.64,0,0,1,86.93,59a33.33,33.33,0,0,1,8.89-7.8,20.62,20.62,0,0,1,10.78-3,11.94,11.94,0,0,1,8.51,3,9.84,9.84,0,0,1,3.19,7.46,12.1,12.1,0,0,1-.92,4.63c0-.23-.73-.63-2.2-1.21s-4-.85-7.67-.85a25.52,25.52,0,0,0-4.78,1.28A22.42,22.42,0,0,0,96.2,66.2,24.44,24.44,0,0,0,90.42,73a20,20,0,0,0-2.5,10.38c0,3.32.5,5.46,1.52,6.43a4.44,4.44,0,0,0,3,1.46,9.2,9.2,0,0,0,7-3.09,26.87,26.87,0,0,0,4.79-7.29A38.63,38.63,0,0,0,107,72.29a38.83,38.83,0,0,0,.83-7,2.33,2.33,0,0,0-.22-1.2,1.11,1.11,0,0,1-.23-.51c0-.23.3-.34.91-.34a10.77,10.77,0,0,1,3.11.6A15.52,15.52,0,0,1,115,65.6a13.4,13.4,0,0,1,3,2.66,5,5,0,0,1,1.29,3.26,4.34,4.34,0,0,1-.46,1.71q-2,5.65-3.26,9t-2.36,6.26a18.39,18.39,0,0,0-1.06,3.43c0,.92.35,1.37,1.06,1.37a7.09,7.09,0,0,0,5.62-2.23,16.54,16.54,0,0,0,3-4.88,35.87,35.87,0,0,0,1.6-4.89q.52-2.22,1.44-2.4c.81,0,1.21.63,1.21,1.89a9.37,9.37,0,0,1-.38,2.4c-.25.91-.53,1.77-.83,2.57s-.59,1.52-.84,2.14A5.6,5.6,0,0,0,123.76,89Z"/><path class="cls-4" d="M131.23,103.7a10.77,10.77,0,0,1-5.14-1.11,9.16,9.16,0,0,1-3.28-2.9,11.18,11.18,0,0,1-1.65-4,21.78,21.78,0,0,1-.41-4.15,51,51,0,0,1,.86-8.3c.56-3.28,1.26-6.83,2.07-10.55s1.67-7.56,2.58-11.51S128,53.51,128.85,50s1.48-6.52,2-9.14a29.67,29.67,0,0,0,.79-5.43,17.2,17.2,0,0,0-.53-4.54A23.32,23.32,0,0,0,130,27.59a10.21,10.21,0,0,0-1-1.82,3.15,3.15,0,0,1-.9-2c0-1.91,2-2.39,3-2.62a21,21,0,0,1,4.71-.46,30,30,0,0,1,4.86.44,14.89,14.89,0,0,1,5,1.81,11.31,11.31,0,0,1,5.61,10.26,39.51,39.51,0,0,1-1.83,10.92c-1.17,4-2.56,8.23-4.13,12.7s-3.22,9-4.94,13.74a139,139,0,0,0-4.2,13.36l0,.16-.06.14a8.91,8.91,0,0,0-.37,1.14c-.2.65-.39,1.41-.58,2.27s-.36,1.79-.51,2.72a16.2,16.2,0,0,0-.2,2.36,3,3,0,0,0,.2,1.43,5.37,5.37,0,0,0,4.23-1.83,17.55,17.55,0,0,0,2.69-4.51,42.31,42.31,0,0,0,1.6-4.76c.76-2.92,2.12-3.54,3.12-3.54a2.41,2.41,0,0,1,2.4,2.11,8.39,8.39,0,0,1,.19,1.49,25.38,25.38,0,0,1-.49,3.92,23.26,23.26,0,0,1-3.43,7.86c-.49.71-1.11,1.49-1.89,2.43a19,19,0,0,1-3.06,2.9,21.74,21.74,0,0,1-3.91,2.39A11.09,11.09,0,0,1,131.23,103.7Z"/><path class="cls-4" d="M132.87,83a13.44,13.44,0,0,0-.45,1.37c-.21.68-.41,1.48-.61,2.4s-.38,1.86-.53,2.83a17.61,17.61,0,0,0-.23,2.66c0,2,.56,3.08,1.67,3.08A6.57,6.57,0,0,0,138.11,93a18.83,18.83,0,0,0,3-5,45.39,45.39,0,0,0,1.67-5c.4-1.54,1-2.31,1.67-2.31a.85.85,0,0,1,.91.77,6.54,6.54,0,0,1,.15,1.11,28.43,28.43,0,0,1-.45,3.6,22.24,22.24,0,0,1-3.19,7.21c-.41.57-1,1.31-1.75,2.22a17.15,17.15,0,0,1-2.81,2.66,20.35,20.35,0,0,1-3.65,2.23,9.69,9.69,0,0,1-4.25,1,9.36,9.36,0,0,1-4.48-1,7.63,7.63,0,0,1-2.73-2.4,9,9,0,0,1-1.37-3.34,19.39,19.39,0,0,1-.38-3.78,49.17,49.17,0,0,1,.84-8q.83-4.89,2-10.46t2.58-11.49q1.36-5.91,2.58-11.14t2.05-9.18a31.22,31.22,0,0,0,.84-5.83,18.9,18.9,0,0,0-.61-5.06,25.15,25.15,0,0,0-1.29-3.6,12,12,0,0,0-1.22-2.14,2.52,2.52,0,0,1-.53-.86c0-.34.61-.66,1.82-.94a19.29,19.29,0,0,1,4.41-.43,27.22,27.22,0,0,1,4.63.43A13.34,13.34,0,0,1,143.13,24a10.07,10.07,0,0,1,3.41,3.34,9.8,9.8,0,0,1,1.37,5.4,37.15,37.15,0,0,1-1.75,10.38q-1.74,5.91-4.1,12.6t-4.93,13.72A140.11,140.11,0,0,0,132.87,83Z"/><path class="cls-4" d="M156.07,101.64a10.54,10.54,0,0,1-7.16-2.82,17.44,17.44,0,0,1-3.86-5.6,23.27,23.27,0,0,1-1.73-6.15,37.44,37.44,0,0,1-.4-4.8,42.1,42.1,0,0,1,2.8-16.07,37.55,37.55,0,0,1,6.85-11.15,27.76,27.76,0,0,1,8.61-6.52,19,19,0,0,1,7.86-2.1,12.37,12.37,0,0,1,9.17,4.23,15.7,15.7,0,0,1,4,11.2,20.19,20.19,0,0,1-1.93,8.88,21,21,0,0,1-5,6.62,21.33,21.33,0,0,1-6.77,4A22,22,0,0,1,161,82.78a18.58,18.58,0,0,1-4.94-.64c-.09.37-.18.74-.26,1.12a11.58,11.58,0,0,0-.26,2.44,9.63,9.63,0,0,0,1.33,5.12c.77,1.28,2.12,1.91,4.13,1.91a13.63,13.63,0,0,0,7.8-2.5,33.6,33.6,0,0,0,6.82-6.15,39.06,39.06,0,0,0,4.81-7,19.08,19.08,0,0,0,2-4.77l.09-.51.48-.54a2.41,2.41,0,0,1,1.83-.85h.25l.24.1a8.27,8.27,0,0,1,1.1.51,3.28,3.28,0,0,1,1.43,2.54l0,.14v.94l-.09.28A43.6,43.6,0,0,1,183,85.57a37.63,37.63,0,0,1-7.22,8.52,31.74,31.74,0,0,1-9.16,5.57,28.28,28.28,0,0,1-10.45,2Zm2-26.52a7.06,7.06,0,0,0,1.37.12,14.36,14.36,0,0,0,3.32-.48,10.91,10.91,0,0,0,3.56-1.59,9.66,9.66,0,0,0,2.8-3,9.24,9.24,0,0,0,1.1-4.85c0-1.77-.59-2.17-.78-2.3a1.86,1.86,0,0,0-1.06-.32,3.62,3.62,0,0,0-1.3.29L167,63l-.18,0c-.33,0-1.06.3-2.26,1.53a28.81,28.81,0,0,0-3.15,4,30.77,30.77,0,0,0-2.51,4.54A14.94,14.94,0,0,0,158.11,75.12Z"/><path class="cls-4" d="M154.29,99.47a9.17,9.17,0,0,1-6.23-2.4A15.78,15.78,0,0,1,144.57,92a21.88,21.88,0,0,1-1.6-5.66,36.51,36.51,0,0,1-.38-4.55,40.1,40.1,0,0,1,2.66-15.34,35.48,35.48,0,0,1,6.53-10.63,26.21,26.21,0,0,1,8.13-6.18,18,18,0,0,1,7.29-2,10.92,10.92,0,0,1,8.12,3.77,13.89,13.89,0,0,1,3.57,9.95,18.29,18.29,0,0,1-1.74,8.06,19.4,19.4,0,0,1-4.56,6.09,19.94,19.94,0,0,1-6.3,3.77,20.47,20.47,0,0,1-7.14,1.29,16.87,16.87,0,0,1-5.93-1,25.52,25.52,0,0,0-.75,2.83,13.3,13.3,0,0,0-.31,2.82,11.54,11.54,0,0,0,1.6,6.09c1.06,1.78,2.86,2.66,5.39,2.66a14.94,14.94,0,0,0,8.58-2.74,35.55,35.55,0,0,0,7.14-6.43,41.75,41.75,0,0,0,5-7.29,20.82,20.82,0,0,0,2.2-5.32l.15-.17a1,1,0,0,1,.76-.34,5,5,0,0,1,.91.43c.31.17.51.6.61,1.28v.52a41.72,41.72,0,0,1-4.63,10.2A36.11,36.11,0,0,1,173,92.27a30.16,30.16,0,0,1-8.73,5.31A26.86,26.86,0,0,1,154.29,99.47Zm10.48-38.59a5.89,5.89,0,0,0-3.12,2,30.07,30.07,0,0,0-3.34,4.2,32.83,32.83,0,0,0-2.66,4.8,10.31,10.31,0,0,0-1.06,3.77c0,.23.31.43.91.6a8,8,0,0,0,2.13.26,15.47,15.47,0,0,0,3.64-.52,12.21,12.21,0,0,0,4-1.8,11.31,11.31,0,0,0,3.27-3.51,11.06,11.06,0,0,0,1.36-5.83c0-1.83-.51-3.09-1.52-3.77A3.69,3.69,0,0,0,164.77,60.88Z"/><path class="cls-5" d="M63.69,23.59a72.38,72.38,0,0,1-2.21,17.58Q59.29,50,57,59.09c2,.23,4,.4,6.08.51s4,.29,5.92.52q2.28-8.74,3.8-14.75T75.31,35c.65-2.91,1.14-5.34,1.44-7.28a36.21,36.21,0,0,0,.45-5.49,12,12,0,0,0-.53-4.12,5.9,5.9,0,0,0-1.21-2.05,4.72,4.72,0,0,0-1.22-1c-.35-.17-.53-.37-.53-.6s.28-.43.84-.6a13.92,13.92,0,0,1,2-.43c.81-.11,1.64-.2,2.5-.25s1.65-.09,2.36-.09q5.76,0,8.81,2.49t3,9a32.92,32.92,0,0,1-1.06,7.89c-.71,2.86-1.59,5.86-2.66,9S87.33,47.88,86,51.2s-2.58,6.63-3.79,9.94c.81.12,1.74.21,2.81.26a12.41,12.41,0,0,1,2.2.26,1.32,1.32,0,0,1,1.14.86,3.87,3.87,0,0,1,.23,1.2,2.91,2.91,0,0,1-.23.94,1.25,1.25,0,0,1-1,.77,15.46,15.46,0,0,1-2.89.43c-1,.06-2.33.09-3.94.09a40.83,40.83,0,0,0-2,5.74c-.61,2.23-1.11,4.55-1.52,7s-.73,4.77-1,7.11a60.09,60.09,0,0,0-.38,6.6A35.7,35.7,0,0,0,76,96a34.54,34.54,0,0,0,1.06,5.4,15.57,15.57,0,0,0,2.2,4.8,4.26,4.26,0,0,0,3.57,2.06,8.13,8.13,0,0,0,4.1-1,26.44,26.44,0,0,0,3.27-2.14c1-.75,1.8-1.46,2.51-2.14a2.88,2.88,0,0,1,1.82-1,1.76,1.76,0,0,1,1.06.51,1.4,1.4,0,0,1,.61,1,5.93,5.93,0,0,1-.84,2.06,12.57,12.57,0,0,1-2.58,3.17,18.6,18.6,0,0,1-4.55,3,15.24,15.24,0,0,1-6.76,1.37,13.81,13.81,0,0,1-8.58-2.48,17.91,17.91,0,0,1-5.17-6.26A27.3,27.3,0,0,1,65.13,96,60.52,60.52,0,0,1,64.45,87a58.71,58.71,0,0,1,.83-9.78q.84-5,2.2-10.63L61.26,67q-3.19.17-6.54.51-1.22,4.64-3.49,11.15A66.79,66.79,0,0,1,45.46,91a44.6,44.6,0,0,1-8,10,14.4,14.4,0,0,1-10,4.11,11,11,0,0,1-8-3,23.14,23.14,0,0,1-4.93-6.86,30.45,30.45,0,0,1-2.51-7.71,37.15,37.15,0,0,1-.68-5.75q0-7.71,3.11-12.6a21,21,0,0,1,8-7.46A30.38,30.38,0,0,1,33.46,58.4a59.62,59.62,0,0,1,11.85-.17q2.43-10.11,4.1-19.12a81.78,81.78,0,0,0,1.67-13.46,46.75,46.75,0,0,0-5.54,2.74,12.83,12.83,0,0,0-4,3.43c.71-.34,1.54-.77,2.51-1.28a25.3,25.3,0,0,1,2.73-1.29,8.53,8.53,0,0,1,2.2-.6c.61-.06.92.08.92.43a.49.49,0,0,0-.16.34.55.55,0,0,1-.45.17c-.31,0-1,.49-2,1.46S45,33.11,43.87,34.31s-2.26,2.26-3.27,3.17-1.62,1.26-1.82,1a10,10,0,0,1-1.6-.77,13.24,13.24,0,0,1-3.11-2.49,17.31,17.31,0,0,1-3-4.46,14.84,14.84,0,0,1-1.37-6.68A7.28,7.28,0,0,1,32.4,18.7,24.71,24.71,0,0,1,39,14.5a45.77,45.77,0,0,1,7.83-2.66,29.69,29.69,0,0,1,6.53-.94,9.38,9.38,0,0,1,5.54,1.46A10.12,10.12,0,0,1,62,15.79a12.36,12.36,0,0,1,1.36,4.11A27.4,27.4,0,0,1,63.69,23.59ZM43.18,69.89c.91-.23,2.33-.63,4.25-1.2,1-.34,2-.63,3-.86a116.56,116.56,0,0,0-15.34,2.49,27.45,27.45,0,0,0-9,3.69,10.73,10.73,0,0,0-4.25,5.31,22.09,22.09,0,0,0-1.07,7.2A23.23,23.23,0,0,0,21.16,90a18,18,0,0,0,1,3.86A9.11,9.11,0,0,0,24,96.9a4,4,0,0,0,3,1.28c1.32,0,2.63-.8,4-2.4a32.72,32.72,0,0,0,3.65-5.57,59.78,59.78,0,0,0,2.81-6.09c.76-1.94,1.24-3.26,1.44-3.94q1.51-4.29,2.43-7C42,71.32,42.57,70.23,43.18,69.89Z"/><path class="cls-5" d="M126.41,89.1a19.93,19.93,0,0,1-5.31,6.68,11.59,11.59,0,0,1-7.6,2.92,6.37,6.37,0,0,1-4.25-1.29A8.51,8.51,0,0,1,107,94.5a11.69,11.69,0,0,1-1-3.18,16,16,0,0,1-.23-2l-.31.68a22.82,22.82,0,0,1-3.64,4.38,19.54,19.54,0,0,1-3.57,2.57,11,11,0,0,1-3.11,1.2,12.9,12.9,0,0,1-2.28.26,9.42,9.42,0,0,1-8.66-4.89,22.05,22.05,0,0,1-2.89-11.4,35.07,35.07,0,0,1,2.21-12.18,37.88,37.88,0,0,1,6.07-10.8,33.7,33.7,0,0,1,8.89-7.81,20.71,20.71,0,0,1,10.78-3,12,12,0,0,1,8.51,3A9.87,9.87,0,0,1,121,58.74a12.21,12.21,0,0,1-.91,4.63c0-.22-.74-.62-2.21-1.2s-4-.85-7.67-.85a25.52,25.52,0,0,0-4.78,1.28,22.19,22.19,0,0,0-6.53,3.69,24.25,24.25,0,0,0-5.77,6.77,20,20,0,0,0-2.51,10.38c0,3.31.51,5.46,1.52,6.43a4.43,4.43,0,0,0,3,1.45,9.19,9.19,0,0,0,7-3.08A26.64,26.64,0,0,0,106.9,81a38.63,38.63,0,0,0,2.73-8.57,39,39,0,0,0,.84-6.95,2.31,2.31,0,0,0-.23-1.2,1.15,1.15,0,0,1-.23-.51c0-.23.31-.35.91-.35A11.25,11.25,0,0,1,114,64a15.9,15.9,0,0,1,3.64,1.72,13.16,13.16,0,0,1,3,2.66A5,5,0,0,1,122,71.6a4.38,4.38,0,0,1-.46,1.72q-2,5.66-3.26,9t-2.36,6.26A18.39,18.39,0,0,0,114.87,92c0,.92.35,1.37,1.06,1.37a7.09,7.09,0,0,0,5.62-2.23,16.54,16.54,0,0,0,3-4.88,35.87,35.87,0,0,0,1.6-4.89q.53-2.23,1.44-2.4c.81,0,1.21.63,1.21,1.88a9,9,0,0,1-.38,2.41c-.25.91-.53,1.77-.83,2.57s-.58,1.51-.84,2.14A5.6,5.6,0,0,0,126.41,89.1Z"/><path class="cls-5" d="M135.53,83.09a11.08,11.08,0,0,0-.46,1.38c-.2.68-.41,1.48-.61,2.4s-.38,1.86-.53,2.83a17.59,17.59,0,0,0-.23,2.65c0,2.06.56,3.09,1.67,3.09a6.61,6.61,0,0,0,5.4-2.31,19.06,19.06,0,0,0,3-5,43.36,43.36,0,0,0,1.67-5c.4-1.54,1-2.32,1.67-2.32a.85.85,0,0,1,.91.78,6.54,6.54,0,0,1,.15,1.11,28.64,28.64,0,0,1-.45,3.6,22.12,22.12,0,0,1-3.19,7.2c-.41.58-1,1.32-1.75,2.23a17.58,17.58,0,0,1-2.81,2.66,20.26,20.26,0,0,1-3.64,2.23,9.76,9.76,0,0,1-4.26.94,9.36,9.36,0,0,1-4.48-.94,7.63,7.63,0,0,1-2.73-2.4,9.13,9.13,0,0,1-1.37-3.34,19.39,19.39,0,0,1-.38-3.78,49.17,49.17,0,0,1,.84-8q.82-4.89,2-10.46c.81-3.71,1.67-7.55,2.58-11.49s1.77-7.66,2.58-11.15,1.49-6.54,2-9.17a31.22,31.22,0,0,0,.84-5.83A18.9,18.9,0,0,0,133.4,30a25.15,25.15,0,0,0-1.29-3.6,12,12,0,0,0-1.22-2.14,2.62,2.62,0,0,1-.53-.86c0-.34.61-.66,1.82-.94a19.35,19.35,0,0,1,4.41-.43,27.13,27.13,0,0,1,4.63.43,13.34,13.34,0,0,1,4.56,1.63,10.1,10.1,0,0,1,3.42,3.34,9.88,9.88,0,0,1,1.36,5.4,37.53,37.53,0,0,1-1.74,10.38q-1.75,5.91-4.11,12.6t-4.93,13.72A140.67,140.67,0,0,0,135.53,83.09Z"/><path class="cls-5" d="M156.94,99.56a9.17,9.17,0,0,1-6.23-2.4,15.78,15.78,0,0,1-3.49-5.06,22,22,0,0,1-1.6-5.66,36.51,36.51,0,0,1-.38-4.55,40.07,40.07,0,0,1,2.66-15.34,35.66,35.66,0,0,1,6.53-10.64,26.29,26.29,0,0,1,8.13-6.17,18,18,0,0,1,7.29-2A10.94,10.94,0,0,1,178,51.54a13.92,13.92,0,0,1,3.56,10,18.29,18.29,0,0,1-1.74,8.06,19.25,19.25,0,0,1-4.56,6.08,19.67,19.67,0,0,1-6.3,3.78,20.46,20.46,0,0,1-7.14,1.28,16.55,16.55,0,0,1-5.92-1,24,24,0,0,0-.76,2.83,13.46,13.46,0,0,0-.31,2.83,11.54,11.54,0,0,0,1.6,6.09q1.59,2.66,5.39,2.66a14.88,14.88,0,0,0,8.58-2.75,35.25,35.25,0,0,0,7.14-6.43,41.32,41.32,0,0,0,5-7.28,20.82,20.82,0,0,0,2.2-5.32l.16-.17a1,1,0,0,1,.76-.34,5.73,5.73,0,0,1,.91.43c.3.17.5.6.6,1.28V74a41.72,41.72,0,0,1-4.63,10.2,36.05,36.05,0,0,1-6.91,8.14,30,30,0,0,1-8.73,5.32A26.86,26.86,0,0,1,156.94,99.56ZM167.42,61a5.77,5.77,0,0,0-3.11,2,29.39,29.39,0,0,0-3.35,4.2,31.84,31.84,0,0,0-2.65,4.8,10.17,10.17,0,0,0-1.07,3.77c0,.23.31.43.91.6a8,8,0,0,0,2.13.26,15.62,15.62,0,0,0,3.65-.52,12.26,12.26,0,0,0,4-1.8,11.19,11.19,0,0,0,3.27-3.51,11.06,11.06,0,0,0,1.36-5.83c0-1.83-.5-3.09-1.52-3.78A3.71,3.71,0,0,0,167.42,61Z"/><path class="cls-4" d="M185.2,71.94a6.15,6.15,0,0,0-.91-.42,1,1,0,0,0-.76.34l-.15.17a21.76,21.76,0,0,1-2.2,5.32,40.87,40.87,0,0,1-5,7.28A34.73,34.73,0,0,1,169,91.06a14.88,14.88,0,0,1-8.58,2.75q-3.8,0-5.39-2.66a11.62,11.62,0,0,1-1.59-6.09,14.12,14.12,0,0,1,.3-2.83,26.15,26.15,0,0,1,.76-2.83,16.59,16.59,0,0,0,5.92,1,20.69,20.69,0,0,0,7.14-1.28,19.83,19.83,0,0,0,6.31-3.78,19.07,19.07,0,0,0,4.55-6.08,18.3,18.3,0,0,0,1.75-8.06,13.89,13.89,0,0,0-3.57-9.95,10.94,10.94,0,0,0-8.13-3.77,18.06,18.06,0,0,0-7.29,2,26.25,26.25,0,0,0-8.12,6.17,35.66,35.66,0,0,0-6.53,10.64,40.07,40.07,0,0,0-2.66,15.34c0,.46,0,1,.07,1.58a42.53,42.53,0,0,1-1.59,4.68,19.06,19.06,0,0,1-3,5A6.58,6.58,0,0,1,134,95.18c-1.12,0-1.67-1-1.67-3.09a16.28,16.28,0,0,1,.23-2.65c.15-1,.32-1.92.53-2.83s.4-1.72.6-2.4.36-1.15.46-1.38a140.67,140.67,0,0,1,4.25-13.54q2.58-7,4.94-13.72t4.1-12.6a37.58,37.58,0,0,0,1.75-10.38,9.88,9.88,0,0,0-1.37-5.4,10,10,0,0,0-3.42-3.34,13.21,13.21,0,0,0-4.55-1.63,27.33,27.33,0,0,0-4.64-.43,19.2,19.2,0,0,0-4.4.43c-1.22.28-1.82.6-1.82.94a2.44,2.44,0,0,0,.53.86,11.68,11.68,0,0,1,1.21,2.14,22.92,22.92,0,0,1,1.29,3.6,18.5,18.5,0,0,1,.61,5.06,31.87,31.87,0,0,1-.83,5.83c-.56,2.63-1.25,5.69-2,9.17S128.09,57,127.18,61s-1.77,7.78-2.58,11.49-1.49,7.2-2,10.46c-.38,2.24-.62,4.17-.74,5.84a18,18,0,0,1-1.61,2.13,7.11,7.11,0,0,1-5.62,2.23c-.71,0-1.06-.45-1.06-1.37a18.39,18.39,0,0,1,1.06-3.43q1.07-2.91,2.35-6.26t3.27-9a4.51,4.51,0,0,0,.45-1.72,5,5,0,0,0-1.29-3.25,13,13,0,0,0-3-2.66,15.71,15.71,0,0,0-3.64-1.72,10.83,10.83,0,0,0-3.11-.6c-.61,0-.92.12-.92.35a1.15,1.15,0,0,0,.23.51,2.31,2.31,0,0,1,.23,1.2,39.79,39.79,0,0,1-.83,7,38.15,38.15,0,0,1-2.74,8.57A26.85,26.85,0,0,1,100.76,88a9.22,9.22,0,0,1-7,3.08,4.45,4.45,0,0,1-3-1.45c-1-1-1.52-3.12-1.52-6.43A20,20,0,0,1,91.72,72.8,24.25,24.25,0,0,1,97.49,66,22.31,22.31,0,0,1,104,62.34a25.57,25.57,0,0,1,4.79-1.28q5.46,0,7.67.85c1.46.58,2.2,1,2.2,1.2a12,12,0,0,0,.91-4.63A9.83,9.83,0,0,0,116.4,51a11.94,11.94,0,0,0-8.5-3,20.74,20.74,0,0,0-10.79,3,33.66,33.66,0,0,0-8.88,7.81,33.24,33.24,0,0,0-2,2.72,1.79,1.79,0,0,0-.37-.15,12.27,12.27,0,0,0-2.2-.26c-1.06,0-2-.14-2.81-.26q1.83-5,3.8-9.94c1.31-3.32,2.5-6.54,3.57-9.69s2-6.14,2.65-9A33,33,0,0,0,92,24.36q0-6.51-3-9c-2-1.66-5-2.49-8.81-2.49-.71,0-1.49,0-2.35.09s-1.7.14-2.51.25a14.5,14.5,0,0,0-2,.43q-.84.25-.84.6t.54.6a4.7,4.7,0,0,1,1.21.95,5.9,5.9,0,0,1,1.22,2.05A12.21,12.21,0,0,1,75.85,22a35,35,0,0,1-.46,5.49q-.45,2.91-1.44,7.28T71.44,45.11q-1.51,6-3.79,14.75c-1.93-.23-3.9-.4-5.93-.52s-4-.28-6.07-.51q2.28-9.09,4.48-17.92a72.86,72.86,0,0,0,2.2-17.58,27.21,27.21,0,0,0-.3-3.69,12.38,12.38,0,0,0-1.37-4.11,10.19,10.19,0,0,0-3.11-3.43A9.44,9.44,0,0,0,52,10.64a29.69,29.69,0,0,0-6.53.94,45.67,45.67,0,0,0-7.82,2.66A24.77,24.77,0,0,0,31,18.44a7.27,7.27,0,0,0-2.73,5.41,14.87,14.87,0,0,0,1.36,6.68,17.83,17.83,0,0,0,3,4.46,13.27,13.27,0,0,0,3.12,2.49,10.17,10.17,0,0,0,1.59.77c.2.23.81-.11,1.82-1s2.1-2,3.27-3.17,2.28-2.29,3.34-3.26,1.75-1.46,2-1.46a.58.58,0,0,0,.46-.17.52.52,0,0,1,.15-.34c0-.33-.29-.47-.84-.43l2-1a101.06,101.06,0,0,1-1.6,11.47Q46.39,47.85,44,58a59.62,59.62,0,0,0-11.85.17A30.38,30.38,0,0,0,21.17,61.4a20.93,20.93,0,0,0-8,7.46q-3.12,4.89-3.12,12.6a36.23,36.23,0,0,0,.69,5.75,30.41,30.41,0,0,0,2.5,7.71,23.17,23.17,0,0,0,4.94,6.86,11,11,0,0,0,8,3,14.38,14.38,0,0,0,10-4.11,44.32,44.32,0,0,0,8-10,66.82,66.82,0,0,0,5.78-12.34q2.26-6.52,3.49-11.15c2.23-.23,4.4-.4,6.53-.51l6.23-.35Q64.77,72,63.93,77a58.74,58.74,0,0,0-.84,9.78,61.91,61.91,0,0,0,.68,8.92,27.59,27.59,0,0,0,2.59,8.4,17.78,17.78,0,0,0,5.16,6.26,13.85,13.85,0,0,0,8.58,2.48,15.35,15.35,0,0,0,6.76-1.37,19.17,19.17,0,0,0,4.56-3A13,13,0,0,0,94,105.3a6,6,0,0,0,.83-2.06,1.42,1.42,0,0,0-.6-1,1.79,1.79,0,0,0-1.07-.51,2.93,2.93,0,0,0-1.82,1,31.35,31.35,0,0,1-2.51,2.14A27.06,27.06,0,0,1,85.57,107a8.16,8.16,0,0,1-4.1,1A4.23,4.23,0,0,1,77.9,106a15.12,15.12,0,0,1-2.2-4.8,34.59,34.59,0,0,1-1.07-5.4q-.3-2.66-.3-3.69a60.09,60.09,0,0,1,.38-6.6q.38-3.51,1-7.11a69.29,69.29,0,0,1,1.52-6.95,39.65,39.65,0,0,1,2-5.74c1.62,0,2.94,0,4-.09l.82-.08a41.19,41.19,0,0,0-1.81,4.11A35,35,0,0,0,80,81.8a22.06,22.06,0,0,0,2.88,11.41,9.42,9.42,0,0,0,8.66,4.89,12.9,12.9,0,0,0,2.28-.26,11.2,11.2,0,0,0,3.11-1.2,18.88,18.88,0,0,0,3.57-2.57,22.83,22.83,0,0,0,3.65-4.38l.3-.68a18.15,18.15,0,0,0,.23,2,11.39,11.39,0,0,0,1,3.18,8.36,8.36,0,0,0,2.28,2.91,6.37,6.37,0,0,0,4.25,1.29,11.59,11.59,0,0,0,7.59-2.92,21.63,21.63,0,0,0,2.17-2.1c0,.42.1.83.18,1.25A9.13,9.13,0,0,0,123.46,98a7.58,7.58,0,0,0,2.74,2.4,9.34,9.34,0,0,0,4.48.94,9.72,9.72,0,0,0,4.25-.94,20.26,20.26,0,0,0,3.64-2.23,16.77,16.77,0,0,0,2.81-2.66c.76-.91,1.35-1.65,1.75-2.23a34,34,0,0,0,2-3.59c.23.72.48,1.43.78,2.14a15.66,15.66,0,0,0,3.5,5,9.12,9.12,0,0,0,6.22,2.41,26.86,26.86,0,0,0,9.95-1.89,30.15,30.15,0,0,0,8.74-5.32A36.31,36.31,0,0,0,181.18,84a42.48,42.48,0,0,0,4.63-10.2v-.52A1.74,1.74,0,0,0,185.2,71.94ZM157,71.69a31.92,31.92,0,0,1,2.66-4.8,28.68,28.68,0,0,1,3.34-4.2,5.77,5.77,0,0,1,3.11-2,3.73,3.73,0,0,1,3.65.17c1,.69,1.52,1.95,1.52,3.78a11.06,11.06,0,0,1-1.37,5.83A11.19,11.19,0,0,1,166.59,74a12.08,12.08,0,0,1-4,1.8,15.55,15.55,0,0,1-3.65.52,7.88,7.88,0,0,1-2.12-.26c-.61-.17-.91-.37-.91-.6A10.11,10.11,0,0,1,157,71.69ZM46.08,68.43c-1.93.57-3.34,1-4.25,1.2-.61.34-1.22,1.43-1.83,3.26s-1.42,4.17-2.43,7c-.2.68-.68,2-1.44,3.94A59.78,59.78,0,0,1,33.32,90a32.13,32.13,0,0,1-3.65,5.57c-1.31,1.6-2.63,2.4-3.94,2.4a4,4,0,0,1-3-1.28,9.29,9.29,0,0,1-1.9-3.09,18,18,0,0,1-1-3.86,24.47,24.47,0,0,1-.3-3.43,22.1,22.1,0,0,1,1.06-7.2,10.79,10.79,0,0,1,4.25-5.31,27.52,27.52,0,0,1,9-3.69,116.28,116.28,0,0,1,15.34-2.49A30.66,30.66,0,0,0,46.08,68.43Z"/><text class="cls-6" transform="translate(41.4 145.08) scale(0.99 1)">f<tspan class="cls-7" x="10.28" y="0">ood app</tspan></text></g></g></svg>